<svg width="138" height="47" viewBox="0 0 138 47" fill="none" xmlns="http://www.w3.org/2000/svg">
<path d="M51.5363 34.7982H53.1719L48.8567 22.3746H46.2119L41.9141 34.7982H43.5149L44.8025 30.9876H50.2487L51.5363 34.7982ZM47.1689 23.9754H47.8649L49.7615 29.5608H45.2723L47.1689 23.9754ZM56.4173 38.2782V33.8412H56.7654C57.2526 34.4676 58.053 35.0244 59.4276 35.0244C61.8636 35.0244 63.3251 33.0408 63.3251 30.4134C63.3251 27.8034 61.8636 25.8024 59.4276 25.8024C58.053 25.8024 57.2003 26.3766 56.7131 26.9856H56.3651V26.0286H54.9384V38.2782H56.4173ZM59.1492 27.09C60.924 27.09 61.8462 28.4646 61.8462 30.4134C61.8462 32.3622 60.924 33.7368 59.1492 33.7368C57.2003 33.7368 56.4 32.136 56.4 30.4134C56.4 28.7082 57.2003 27.09 59.1492 27.09ZM67.1224 38.2782V33.8412H67.4704C67.9576 34.4676 68.758 35.0244 70.1326 35.0244C72.5686 35.0244 74.0302 33.0408 74.0302 30.4134C74.0302 27.8034 72.5686 25.8024 70.1326 25.8024C68.758 25.8024 67.9054 26.3766 67.4182 26.9856H67.0702V26.0286H65.6434V38.2782H67.1224ZM69.8542 27.09C71.629 27.09 72.5512 28.4646 72.5512 30.4134C72.5512 32.3622 71.629 33.7368 69.8542 33.7368C67.9054 33.7368 67.105 32.136 67.105 30.4134C67.105 28.7082 67.9054 27.09 69.8542 27.09ZM84.8279 27.3684C83.7665 27.1422 82.7225 26.7594 82.7225 25.5588C82.7225 24.2538 83.9753 23.5752 85.4717 23.5752C87.2639 23.5752 88.1339 24.2712 88.4297 25.5066H90.0131C89.7347 23.5056 88.0817 22.1484 85.5065 22.1484C82.7051 22.1484 81.1391 23.6622 81.1391 25.5936C81.1391 27.4032 82.3571 28.3776 84.1493 28.743C84.7583 28.8648 85.9937 29.1084 86.6027 29.2476C87.8207 29.5086 88.7081 30.048 88.7081 31.3704C88.7081 32.7972 87.3857 33.5976 85.6631 33.5976C83.9405 33.5976 82.4789 33.0234 82.1831 31.3356H80.5997C80.8085 33.4932 82.6877 35.0244 85.5935 35.0244C88.7429 35.0244 90.2915 33.2844 90.2915 31.3356C90.2915 29.2128 89.0213 28.2558 87.1769 27.8382C86.5331 27.699 85.3673 27.4728 84.8279 27.3684ZM95.0428 26.0286V23.3838H93.5638V26.0286H91.789V27.3162H93.5638V32.4666C93.5638 34.311 94.573 34.7982 96.487 34.7982H97.4094V33.4758H96.5914C95.4256 33.4758 95.0428 33.0408 95.0428 32.1708V27.3162H97.4094V26.0286H95.0428ZM103.404 25.8024C100.655 25.8024 99.0885 27.8034 99.0885 30.4134C99.0885 33.0234 100.655 35.0244 103.404 35.0244C106.136 35.0244 107.719 33.0234 107.719 30.4134C107.719 27.8034 106.136 25.8024 103.404 25.8024ZM103.404 33.7368C101.455 33.7368 100.568 32.136 100.568 30.4134C100.568 28.7082 101.455 27.09 103.404 27.09C105.335 27.09 106.24 28.7082 106.24 30.4134C106.24 32.136 105.335 33.7368 103.404 33.7368ZM114.952 26.0286H114.343C113.072 26.0286 112.237 26.5506 111.802 27.09H111.454V26.0286H110.027V34.7982H111.506V30.4134C111.506 28.4994 112.55 27.4206 114.273 27.4206H114.952V26.0286ZM124.479 29.8914C124.444 27.7338 123.157 25.8024 120.564 25.8024C117.902 25.8024 116.336 27.6294 116.336 30.3264C116.336 33.006 117.867 35.0244 120.599 35.0244C122.774 35.0244 124.027 33.876 124.322 32.3796H122.826C122.565 33.2148 121.817 33.7368 120.599 33.7368C118.789 33.7368 117.832 32.4666 117.797 30.396H124.479V29.8914ZM120.529 27.09C122.026 27.09 122.843 28.0644 122.948 29.1606H117.884C118.093 28.047 118.928 27.09 120.529 27.09Z" fill="#F4F4F4"/>
<path d="M45.0302 9.53192H42.4492V16.4339H45.0302C47.1472 16.4339 48.2202 15.0516 48.2202 12.9829C48.2202 10.9046 47.1472 9.53192 45.0302 9.53192ZM45.0302 15.6413H43.3192V10.3246H45.0302C46.7122 10.3246 47.3406 11.5329 47.3406 12.9829C47.3406 14.4233 46.7122 15.6413 45.0302 15.6413ZM51.6438 11.4363C50.1164 11.4363 49.2464 12.5479 49.2464 13.9979C49.2464 15.4479 50.1164 16.5596 51.6438 16.5596C53.1614 16.5596 54.0411 15.4479 54.0411 13.9979C54.0411 12.5479 53.1614 11.4363 51.6438 11.4363ZM51.6438 15.8442C50.5611 15.8442 50.0681 14.9549 50.0681 13.9979C50.0681 13.0506 50.5611 12.1516 51.6438 12.1516C52.7168 12.1516 53.2194 13.0506 53.2194 13.9979C53.2194 14.9549 52.7168 15.8442 51.6438 15.8442ZM57.3631 13.0603L56.5318 15.5639H56.3385L55.7488 11.5619H54.9561L55.6618 16.4339H56.9378L57.7885 13.8723H57.9721L58.8228 16.4339H60.0795L60.7948 11.5619H60.0021L59.4318 15.5639H59.2385L58.4265 13.0603H57.3631ZM64.4238 11.4363C63.7568 11.4363 63.2348 11.7263 62.9834 12.0936H62.7998V11.5619H62.0071V16.4339H62.8288V13.7853C62.8288 12.9346 63.3991 12.1709 64.2691 12.1709C65.0908 12.1709 65.5161 12.6252 65.5161 13.5146V16.4339H66.3378V13.3696C66.3378 12.1999 65.6418 11.4363 64.4238 11.4363ZM67.841 9.40625V16.4339H68.6627V9.40625H67.841ZM72.346 11.4363C70.8187 11.4363 69.9487 12.5479 69.9487 13.9979C69.9487 15.4479 70.8187 16.5596 72.346 16.5596C73.8637 16.5596 74.7433 15.4479 74.7433 13.9979C74.7433 12.5479 73.8637 11.4363 72.346 11.4363ZM72.346 15.8442C71.2633 15.8442 70.7703 14.9549 70.7703 13.9979C70.7703 13.0506 71.2633 12.1516 72.346 12.1516C73.419 12.1516 73.9217 13.0506 73.9217 13.9979C73.9217 14.9549 73.419 15.8442 72.346 15.8442ZM79.1286 16.4339H79.9019V13.1183C79.9019 12.0259 79.1093 11.4363 77.8913 11.4363C76.799 11.4363 76.0159 11.9583 75.958 12.8573H76.7796C76.8183 12.4319 77.1953 12.1516 77.9106 12.1516C78.7516 12.1516 79.0996 12.5769 79.0996 13.1666V13.3599H77.5143C76.1513 13.3599 75.6486 14.1912 75.6486 14.9742C75.6486 15.8056 76.277 16.5596 77.408 16.5596C78.104 16.5596 78.6356 16.2889 78.9353 15.9119H79.1286V16.4339ZM77.6013 15.8442C76.8859 15.8442 76.4703 15.5059 76.4703 14.9549C76.4703 14.3846 76.8473 14.0462 77.6399 14.0462H79.0996V14.4812C79.0996 15.2449 78.4229 15.8442 77.6013 15.8442ZM84.9445 9.40625V12.0936H84.7511C84.4805 11.7456 84.0358 11.4363 83.2721 11.4363C81.9188 11.4363 81.1068 12.5382 81.1068 13.9979C81.1068 15.4479 81.9188 16.5596 83.2721 16.5596C84.0358 16.5596 84.5095 16.2406 84.7801 15.9023H84.9735V16.4339H85.7661V9.40625H84.9445ZM83.4268 15.8442C82.4408 15.8442 81.9285 15.0806 81.9285 13.9979C81.9285 12.9153 82.4408 12.1516 83.4268 12.1516C84.5095 12.1516 84.9541 13.0409 84.9541 13.9979C84.9541 14.9453 84.5095 15.8442 83.4268 15.8442ZM92.1419 11.4363C90.6145 11.4363 89.7445 12.5479 89.7445 13.9979C89.7445 15.4479 90.6145 16.5596 92.1419 16.5596C93.6595 16.5596 94.5392 15.4479 94.5392 13.9979C94.5392 12.5479 93.6595 11.4363 92.1419 11.4363ZM92.1419 15.8442C91.0592 15.8442 90.5662 14.9549 90.5662 13.9979C90.5662 13.0506 91.0592 12.1516 92.1419 12.1516C93.2149 12.1516 93.7175 13.0506 93.7175 13.9979C93.7175 14.9549 93.2149 15.8442 92.1419 15.8442ZM98.2385 11.4363C97.5715 11.4363 97.0495 11.7263 96.7981 12.0936H96.6142V11.5619H95.8215V16.4339H96.6432V13.7853C96.6432 12.9346 97.2138 12.1709 98.0838 12.1709C98.9055 12.1709 99.3308 12.6252 99.3308 13.5146V16.4339H100.152V13.3696C100.152 12.1999 99.4565 11.4363 98.2385 11.4363ZM105.622 11.5619V10.0926H104.8V11.5619H103.814V12.2773H104.8V15.1386C104.8 16.1632 105.361 16.4339 106.424 16.4339H106.937V15.6993H106.482C105.835 15.6993 105.622 15.4576 105.622 14.9742V12.2773H106.937V11.5619H105.622ZM110.708 11.4363C110.041 11.4363 109.539 11.7263 109.297 12.0936H109.113V9.40625H108.292V16.4339H109.113V13.7853C109.113 12.9346 109.684 12.1709 110.554 12.1709C111.375 12.1709 111.801 12.6252 111.801 13.5146V16.4339H112.622V13.3696C112.622 12.1999 111.926 11.4363 110.708 11.4363ZM118.35 13.7079C118.331 12.5093 117.615 11.4363 116.175 11.4363C114.696 11.4363 113.826 12.4513 113.826 13.9496C113.826 15.4383 114.677 16.5596 116.194 16.5596C117.403 16.5596 118.099 15.9216 118.263 15.0903H117.432C117.287 15.5542 116.871 15.8442 116.194 15.8442C115.189 15.8442 114.657 15.1386 114.638 13.9883H118.35V13.7079ZM116.156 12.1516C116.987 12.1516 117.441 12.6929 117.499 13.3019H114.686C114.802 12.6833 115.266 12.1516 116.156 12.1516Z" fill="#E6D0C4"/>
<path d="M28.8157 22.972C28.8272 22.0827 29.0634 21.2108 29.5024 20.4374C29.9413 19.6639 30.5688 19.0141 31.3264 18.5484C30.8452 17.861 30.2103 17.2954 29.4721 16.8964C28.734 16.4972 27.913 16.2759 27.0743 16.2496C25.2852 16.0618 23.5508 17.3201 22.6391 17.3201C21.7098 17.3201 20.3062 16.2682 18.7946 16.2993C17.8169 16.331 16.8642 16.6153 16.029 17.1246C15.1939 17.6338 14.5049 18.3508 14.0292 19.2056C11.9688 22.773 13.5057 28.0158 15.4794 30.8995C16.467 32.3115 17.6211 33.8887 19.1312 33.8328C20.6089 33.7715 21.1609 32.8904 22.9447 32.8904C24.712 32.8904 25.2297 33.8328 26.7705 33.7973C28.3562 33.7715 29.3553 32.379 30.3082 30.9535C31.0177 29.9474 31.5637 28.8355 31.9259 27.6588C31.0047 27.2692 30.2185 26.617 29.6653 25.7835C29.1123 24.95 28.8168 23.9723 28.8157 22.972Z" fill="#F4F4F4"/>
<path d="M25.9042 14.3517C26.7688 13.3138 27.1947 11.9798 27.0916 10.6328C25.7707 10.7715 24.5505 11.4029 23.6742 12.4009C23.2458 12.8885 22.9177 13.4558 22.7086 14.0703C22.4995 14.6848 22.4136 15.3345 22.4557 15.9822C23.1165 15.9889 23.7701 15.8458 24.3674 15.5633C24.9647 15.2809 25.4902 14.8666 25.9042 14.3517Z" fill="#F4F4F4"/>
<path d="M7.73437 0.984375H129.534C133.262 0.984375 136.284 4.00645 136.284 7.73438V38.6677C136.284 42.3956 133.262 45.4177 129.534 45.4177H7.73437C4.00645 45.4177 0.984375 42.3956 0.984375 38.6677V7.73438C0.984375 4.00645 4.00645 0.984375 7.73437 0.984375Z" stroke="#F4F4F4"/>
</svg>
