<svg width="31" height="22" viewBox="0 0 31 22" fill="none" xmlns="http://www.w3.org/2000/svg">
<path d="M8.25 6.73633L15.5 11.7556L22.75 6.73633" stroke="#040606" stroke-linecap="round" stroke-linejoin="round"/>
<path d="M1 18.2088V3.86813C1 3.10746 1.30553 2.37794 1.84939 1.84006C2.39325 1.30218 3.13087 1 3.9 1H27.1C27.8691 1 28.6068 1.30218 29.1506 1.84006C29.6945 2.37794 30 3.10746 30 3.86813V18.2088C30 18.9695 29.6945 19.699 29.1506 20.2369C28.6068 20.7747 27.8691 21.0769 27.1 21.0769H3.9C3.13087 21.0769 2.39325 20.7747 1.84939 20.2369C1.30553 19.699 1 18.9695 1 18.2088Z" stroke="#040606"/>
</svg>
