<svg width="154" height="47" viewBox="0 0 154 47" fill="none" xmlns="http://www.w3.org/2000/svg">
<g clip-path="url(#clip0_981_2095)">
<path d="M49.0234 28.2036V29.5956H52.8688V29.8218C52.8688 31.8228 51.8422 33.5976 49.267 33.5976C46.3264 33.5976 45.0736 31.2312 45.0736 28.5864C45.0736 25.9068 46.3612 23.5752 49.2844 23.5752C51.0766 23.5752 52.0684 24.3582 52.4512 25.611H54.0868C53.5996 23.4882 51.8596 22.1484 49.2844 22.1484C45.526 22.1484 43.4902 24.9324 43.4902 28.5864C43.4902 32.2056 45.4912 35.0244 49.2496 35.0244C53.0254 35.0244 54.4696 32.31 54.4696 29.4564V28.2036H49.0234ZM60.6838 25.8024C57.9346 25.8024 56.3686 27.8034 56.3686 30.4134C56.3686 33.0234 57.9346 35.0244 60.6838 35.0244C63.4156 35.0244 64.9991 33.0234 64.9991 30.4134C64.9991 27.8034 63.4156 25.8024 60.6838 25.8024ZM60.6838 33.7368C58.735 33.7368 57.8476 32.136 57.8476 30.4134C57.8476 28.7082 58.735 27.09 60.6838 27.09C62.6152 27.09 63.5201 28.7082 63.5201 30.4134C63.5201 32.136 62.6152 33.7368 60.6838 33.7368ZM71.0831 25.8024C68.3339 25.8024 66.7679 27.8034 66.7679 30.4134C66.7679 33.0234 68.3339 35.0244 71.0831 35.0244C73.8149 35.0244 75.3983 33.0234 75.3983 30.4134C75.3983 27.8034 73.8149 25.8024 71.0831 25.8024ZM71.0831 33.7368C69.1343 33.7368 68.2469 32.136 68.2469 30.4134C68.2469 28.7082 69.1343 27.09 71.0831 27.09C73.0145 27.09 73.9193 28.7082 73.9193 30.4134C73.9193 32.136 73.0145 33.7368 71.0831 33.7368ZM84.1272 26.0286V26.9856H83.7792C83.3268 26.394 82.4742 25.8024 81.117 25.8024C78.6984 25.8024 77.1672 27.7164 77.1672 30.2916C77.1672 32.8494 78.6984 34.7634 81.117 34.7634C82.4394 34.7634 83.2746 34.1892 83.727 33.5802H84.075V34.2936C84.075 36.051 83.2572 37.1472 81.4476 37.1472C80.1252 37.1472 79.203 36.7644 78.9594 35.7204H77.4978C77.7588 37.443 79.2378 38.4 81.465 38.4C84.0054 38.4 85.554 36.834 85.554 34.3632V26.0286H84.1272ZM81.3432 33.4758C79.638 33.4758 78.6462 32.1882 78.6462 30.2916C78.6462 28.3776 79.638 27.09 81.3432 27.09C83.2224 27.09 84.1098 28.6038 84.1098 30.2916C84.1098 31.962 83.2224 33.4758 81.3432 33.4758ZM88.4116 22.1484V34.7982H89.8906V22.1484H88.4116ZM100.349 29.8914C100.314 27.7338 99.0262 25.8024 96.4334 25.8024C93.7712 25.8024 92.2052 27.6294 92.2052 30.3264C92.2052 33.006 93.7364 35.0244 96.4682 35.0244C98.6434 35.0244 99.8962 33.876 100.192 32.3796H98.6956C98.4346 33.2148 97.6864 33.7368 96.4682 33.7368C94.6586 33.7368 93.7016 32.4666 93.6668 30.396H100.349V29.8914ZM96.3986 27.09C97.8952 27.09 98.713 28.0644 98.8174 29.1606H93.7538C93.9626 28.047 94.7978 27.09 96.3986 27.09ZM112.906 22.3746H107.651V34.7982H109.217V29.8218H112.906C115.603 29.8218 117.116 28.4124 117.116 26.0808C117.116 23.784 115.603 22.3746 112.906 22.3746ZM112.645 28.4298H109.217V23.7666H112.645C114.767 23.7666 115.533 24.654 115.533 26.0982C115.533 27.5424 114.767 28.4298 112.645 28.4298ZM119.439 22.1484V34.7982H120.918V22.1484H119.439ZM129.357 34.7982H130.749V28.83C130.749 26.8638 129.323 25.8024 127.13 25.8024C125.164 25.8024 123.754 26.742 123.65 28.3602H125.129C125.199 27.5946 125.877 27.09 127.165 27.09C128.679 27.09 129.305 27.8556 129.305 28.917V29.265H126.451C123.998 29.265 123.093 30.7614 123.093 32.1708C123.093 33.6672 124.224 35.0244 126.26 35.0244C127.513 35.0244 128.47 34.5372 129.009 33.8586H129.357V34.7982ZM126.608 33.7368C125.32 33.7368 124.572 33.1278 124.572 32.136C124.572 31.1094 125.251 30.5004 126.678 30.5004H129.305V31.2834C129.305 32.658 128.087 33.7368 126.608 33.7368ZM135.824 38.2782L141.114 26.0286H139.53L137.094 31.8054H136.659L134.015 26.0286H132.414L136.103 34.0152L134.31 38.2782H135.824Z" fill="#F4F4F4"/>
<path d="M46.1404 12.7703V13.5436H48.2767V13.6693C48.2767 14.7809 47.7064 15.7669 46.2757 15.7669C44.6421 15.7669 43.9461 14.4523 43.9461 12.9829C43.9461 11.4943 44.6614 10.1989 46.2854 10.1989C47.2811 10.1989 47.8321 10.6339 48.0447 11.3299H48.9534C48.6827 10.1506 47.7161 9.40625 46.2854 9.40625C44.1974 9.40625 43.0664 10.9529 43.0664 12.9829C43.0664 14.9936 44.1781 16.5596 46.2661 16.5596C48.3637 16.5596 49.1661 15.0516 49.1661 13.4663V12.7703H46.1404ZM54.7451 13.7079C54.7258 12.5093 54.0104 11.4363 52.5701 11.4363C51.0911 11.4363 50.2211 12.4513 50.2211 13.9496C50.2211 15.4383 51.0718 16.5596 52.5894 16.5596C53.7978 16.5596 54.4938 15.9216 54.6581 15.0903H53.8268C53.6818 15.5542 53.2661 15.8442 52.5894 15.8442C51.5841 15.8442 51.0524 15.1386 51.0331 13.9883H54.7451V13.7079ZM52.5508 12.1516C53.3821 12.1516 53.8364 12.6929 53.8944 13.3019H51.0814C51.1974 12.6833 51.6614 12.1516 52.5508 12.1516ZM57.3004 11.5619V10.0926H56.4787V11.5619H55.4927V12.2773H56.4787V15.1386C56.4787 16.1632 57.0394 16.4339 58.1027 16.4339H58.615V15.6993H58.1607C57.513 15.6993 57.3004 15.4576 57.3004 14.9742V12.2773H58.615V11.5619H57.3004ZM63.5694 10.3729V9.40625H62.6221V10.3729H63.5694ZM63.5017 11.5619H62.6801V16.4339H63.5017V11.5619ZM67.5319 11.4363C66.8649 11.4363 66.3429 11.7263 66.0915 12.0936H65.9079V11.5619H65.1152V16.4339H65.9369V13.7853C65.9369 12.9346 66.5072 12.1709 67.3772 12.1709C68.1989 12.1709 68.6242 12.6252 68.6242 13.5146V16.4339H69.4459V13.3696C69.4459 12.1999 68.7499 11.4363 67.5319 11.4363ZM75.7372 11.4363C74.2099 11.4363 73.3399 12.5479 73.3399 13.9979C73.3399 15.4479 74.2099 16.5596 75.7372 16.5596C77.2549 16.5596 78.1346 15.4479 78.1346 13.9979C78.1346 12.5479 77.2549 11.4363 75.7372 11.4363ZM75.7372 15.8442C74.6546 15.8442 74.1616 14.9549 74.1616 13.9979C74.1616 13.0506 74.6546 12.1516 75.7372 12.1516C76.8102 12.1516 77.3129 13.0506 77.3129 13.9979C77.3129 14.9549 76.8102 15.8442 75.7372 15.8442ZM81.8336 11.4363C81.1666 11.4363 80.6446 11.7263 80.3933 12.0936H80.2096V11.5619H79.4169V16.4339H80.2386V13.7853C80.2386 12.9346 80.8089 12.1709 81.6789 12.1709C82.5006 12.1709 82.9259 12.6252 82.9259 13.5146V16.4339H83.7476V13.3696C83.7476 12.1999 83.0516 11.4363 81.8336 11.4363Z" fill="#E6D0C4"/>
<path d="M13.5314 34.3733L13.4643 34.3092C13.2018 34.0314 13.0469 33.6002 13.0469 33.0418V33.1732V13.2246C13.0469 13.2228 13.0469 13.2214 13.0469 13.2201C13.0469 13.2217 13.0469 13.2232 13.0469 13.225V13.3568C13.0469 12.7521 13.2275 12.2965 13.5302 12.0234L24.7058 23.1987L13.5314 34.3733ZM13.0469 13.2189C13.0469 13.1692 13.0482 13.121 13.0507 13.0734C13.0482 13.1206 13.0469 13.1692 13.0469 13.2189ZM13.0507 13.0713C13.0507 13.0706 13.0507 13.07 13.051 13.0692C13.0507 13.07 13.0507 13.0706 13.0507 13.0713ZM13.051 13.065C13.051 13.0646 13.051 13.0642 13.051 13.0639C13.051 13.0642 13.051 13.0646 13.051 13.065Z" fill="url(#paint0_linear_981_2095)"/>
<path d="M28.4297 27.0549L28.5147 27.0066L32.9281 24.499C33.3489 24.2598 33.6293 23.9698 33.7692 23.6629C33.6296 23.9698 33.3491 24.2602 32.9281 24.4994L28.5147 27.007L28.4297 27.0549ZM28.4308 26.9227L24.7051 23.1964L28.4304 19.4707L32.9281 22.0259C33.4992 22.3504 33.8199 22.7687 33.8734 23.196C33.8734 23.1964 33.8734 23.1971 33.8734 23.1978C33.8199 23.6242 33.4992 24.0427 32.9281 24.3673L28.4308 26.9227Z" fill="url(#paint1_linear_981_2095)"/>
<path d="M14.3268 34.7993C14.0145 34.7993 13.7421 34.6978 13.5297 34.5061L13.5301 34.5058C13.7425 34.6975 14.0153 34.7993 14.3274 34.7993C14.3545 34.7993 14.3821 34.7986 14.4099 34.7973C14.3817 34.7986 14.3538 34.7993 14.3268 34.7993ZM14.3271 34.6672C14.0149 34.6676 13.7425 34.5657 13.5301 34.374V34.3738L24.7046 23.1992L28.4302 26.9255L15.3376 34.3645C14.9754 34.5699 14.6321 34.6672 14.3271 34.6672ZM13.5269 34.5037C13.5072 34.4858 13.4878 34.4668 13.4688 34.447L13.5269 34.5037Z" fill="url(#paint2_linear_981_2095)"/>
<path d="M24.7068 23.1976L13.5312 12.0223C13.7436 11.8309 14.0157 11.7295 14.3275 11.7295C14.6334 11.7295 14.9769 11.827 15.3399 12.0328L28.4321 19.4718L24.7068 23.1976ZM28.5164 19.3877L15.3399 11.9011C14.9769 11.6953 14.6334 11.5977 14.3275 11.5977C14.326 11.5977 14.3251 11.5977 14.3236 11.5977C14.3255 11.5977 14.3268 11.5977 14.3289 11.5977C14.6341 11.5977 14.9773 11.6949 15.3399 11.9008L28.5164 19.3877Z" fill="url(#paint3_linear_981_2095)"/>
<path d="M14.4097 34.7981C14.6934 34.782 15.0073 34.6843 15.3375 34.4973L28.429 27.0586L15.3375 34.4973C15.0076 34.6847 14.6934 34.782 14.4097 34.7981ZM13.5296 34.507L13.5268 34.5046C13.5278 34.5054 13.5289 34.5064 13.5296 34.507ZM13.4686 34.4479L13.4629 34.4423V34.442C13.4651 34.444 13.4669 34.4462 13.4686 34.4479Z" fill="#244D4D"/>
<path d="M28.4297 27.0561L28.5148 27.0078L28.4297 27.0561Z" fill="url(#paint4_linear_981_2095)"/>
<path d="M14.3273 34.7996C14.0151 34.7996 13.7424 34.6978 13.53 34.5061L13.5296 34.5064C13.5289 34.5057 13.5278 34.5047 13.5268 34.504L13.4686 34.4472C13.4669 34.4455 13.4651 34.4434 13.4629 34.4413L13.53 34.3742C13.7424 34.5659 14.0148 34.6678 14.327 34.6674C14.632 34.6674 14.9752 34.5702 15.3375 34.3648L28.4301 26.9258L28.514 27.0097L28.429 27.0579L15.3375 34.4966C15.0073 34.6837 14.6934 34.7813 14.4097 34.7975C14.3819 34.7989 14.3544 34.7996 14.3273 34.7996Z" fill="url(#paint5_linear_981_2095)"/>
<path d="M13.4643 34.4416C13.2018 34.1639 13.0469 33.7327 13.0469 33.1742V33.1738C13.0469 33.7327 13.2018 34.1635 13.4643 34.4412V34.4416Z" fill="#244D4D"/>
<path d="M13.4643 34.4418C13.2018 34.1641 13.0469 33.7332 13.0469 33.1744V33.043C13.0469 33.6014 13.2018 34.0326 13.4643 34.3104L13.5314 34.3746L13.4643 34.4418Z" fill="url(#paint6_linear_981_2095)"/>
<path d="M13.4629 34.4402L13.5298 34.373V34.3733L13.4629 34.4402Z" fill="url(#paint7_linear_981_2095)"/>
<path d="M33.7695 23.665C33.8389 23.5127 33.8738 23.3563 33.8738 23.1998C33.8738 23.1995 33.8738 23.1992 33.8738 23.1992C33.8738 23.3559 33.8389 23.5123 33.7695 23.665Z" fill="#244D4D"/>
<path d="M28.5155 27.01L28.4316 26.9261L32.929 24.3706C33.5001 24.0461 33.8207 23.6276 33.8743 23.2012C33.8743 23.3577 33.8394 23.5141 33.7701 23.6663C33.6302 23.9732 33.3498 24.2632 32.929 24.5024L28.5155 27.01Z" fill="url(#paint8_linear_981_2095)"/>
<path d="M33.8728 23.1965V23.1962C33.8724 22.7243 33.5571 22.2526 32.9274 21.8946L28.514 19.387H28.5137L28.514 19.3867L32.9274 21.8943C33.5577 22.2522 33.8734 22.7247 33.8728 23.1965Z" fill="#404040"/>
<path d="M33.8727 23.196C33.8191 22.7686 33.4985 22.3503 32.9274 22.0258L28.4297 19.4706L28.5136 19.3867H28.514L32.9274 21.8943C33.5571 22.2524 33.8724 22.7241 33.8727 23.196Z" fill="url(#paint9_linear_981_2095)"/>
<path d="M13.0469 13.2189C13.0469 13.2185 13.0469 13.2181 13.0469 13.2177C13.0469 13.2181 13.0469 13.2185 13.0469 13.2189ZM13.0507 13.0722C13.0507 13.0715 13.0507 13.0708 13.0507 13.0701C13.0507 13.0708 13.0507 13.0715 13.0507 13.0722ZM13.051 13.068C13.051 13.0666 13.051 13.0653 13.051 13.0638C13.051 13.0653 13.051 13.0666 13.051 13.068ZM13.051 13.0626C13.1032 12.1361 13.6071 11.6008 14.3199 11.5977C14.0108 11.5995 13.7417 11.7009 13.531 11.8908V11.8905L13.5285 11.893C13.5062 11.913 13.4852 11.9342 13.4643 11.956C13.2275 12.2065 13.0782 12.5817 13.051 13.0626Z" fill="#404040"/>
<path d="M13.0469 13.3538V13.222C13.0469 13.2203 13.0469 13.2188 13.0469 13.2171C13.0469 13.2167 13.0469 13.2164 13.0469 13.216C13.0469 13.1663 13.0482 13.1177 13.0507 13.0705C13.0507 13.0697 13.0507 13.0691 13.0507 13.0683C13.0507 13.0677 13.0507 13.0669 13.051 13.0663C13.051 13.0648 13.051 13.0635 13.051 13.062C13.051 13.0616 13.051 13.0613 13.051 13.0609C13.0782 12.58 13.2275 12.2048 13.4643 11.9543L13.5302 12.0205C13.2275 12.2936 13.0469 12.7491 13.0469 13.3538ZM13.5285 11.8912L13.531 11.8887C13.5302 11.8897 13.5291 11.8905 13.5285 11.8912Z" fill="url(#paint10_linear_981_2095)"/>
<path d="M28.4298 19.4718L15.3375 12.0328C14.9745 11.827 14.631 11.7294 14.3252 11.7294C14.0133 11.7294 13.7413 11.8309 13.5289 12.0222L13.4629 11.956C13.4838 11.9342 13.5048 11.913 13.5271 11.893C13.5278 11.8923 13.5289 11.8915 13.5296 11.8908C13.7403 11.701 14.0094 11.5995 14.3185 11.5977C14.3192 11.5977 14.3202 11.5977 14.3213 11.5977C14.3227 11.5977 14.3237 11.5977 14.3252 11.5977C14.631 11.5977 14.9745 11.6953 15.3375 11.9011L28.514 19.3876L28.5136 19.3879L28.4298 19.4718Z" fill="url(#paint11_linear_981_2095)"/>
<path d="M7.73438 0.984375H145.968C149.696 0.984375 152.718 4.00645 152.718 7.73438V38.6677C152.718 42.3956 149.696 45.4177 145.968 45.4177H7.73438C4.00645 45.4177 0.984375 42.3956 0.984375 38.6677V7.73438C0.984375 4.00645 4.00645 0.984375 7.73438 0.984375Z" stroke="#F4F4F4"/>
</g>
<defs>
<linearGradient id="paint0_linear_981_2095" x1="23.7149" y1="13.0142" x2="8.57712" y2="28.152" gradientUnits="userSpaceOnUse">
<stop stop-color="#00A0FF"/>
<stop offset="0.00657445" stop-color="#00A1FF"/>
<stop offset="0.2601" stop-color="#00BEFF"/>
<stop offset="0.5122" stop-color="#00D2FF"/>
<stop offset="0.7604" stop-color="#00DFFF"/>
<stop offset="1" stop-color="#00E3FF"/>
</linearGradient>
<linearGradient id="paint1_linear_981_2095" x1="34.5693" y1="23.1969" x2="12.7437" y2="23.1969" gradientUnits="userSpaceOnUse">
<stop stop-color="#FFE000"/>
<stop offset="0.4087" stop-color="#FFBD00"/>
<stop offset="0.7754" stop-color="#FFA500"/>
<stop offset="1" stop-color="#FF9C00"/>
</linearGradient>
<linearGradient id="paint2_linear_981_2095" x1="26.4441" y1="25.2695" x2="5.91624" y2="45.7975" gradientUnits="userSpaceOnUse">
<stop stop-color="#FF3A44"/>
<stop offset="1" stop-color="#C31162"/>
</linearGradient>
<linearGradient id="paint3_linear_981_2095" x1="10.6346" y1="5.31584" x2="19.8012" y2="14.4824" gradientUnits="userSpaceOnUse">
<stop stop-color="#32A071"/>
<stop offset="0.0685" stop-color="#2DA771"/>
<stop offset="0.4762" stop-color="#15CF74"/>
<stop offset="0.8009" stop-color="#06E775"/>
<stop offset="1" stop-color="#00F076"/>
</linearGradient>
<linearGradient id="paint4_linear_981_2095" x1="34.5793" y1="23.1918" x2="12.7181" y2="23.1918" gradientUnits="userSpaceOnUse">
<stop stop-color="#CCB300"/>
<stop offset="0.4087" stop-color="#CC9700"/>
<stop offset="0.7754" stop-color="#CC8400"/>
<stop offset="1" stop-color="#CC7D00"/>
</linearGradient>
<linearGradient id="paint5_linear_981_2095" x1="26.444" y1="25.2698" x2="5.9161" y2="45.7977" gradientUnits="userSpaceOnUse">
<stop stop-color="#CC2E36"/>
<stop offset="1" stop-color="#9C0E4E"/>
</linearGradient>
<linearGradient id="paint6_linear_981_2095" x1="23.7149" y1="13.0154" x2="8.57709" y2="28.1531" gradientUnits="userSpaceOnUse">
<stop stop-color="#008DE0"/>
<stop offset="0.00657445" stop-color="#008DE0"/>
<stop offset="0.2601" stop-color="#00A7E0"/>
<stop offset="0.5122" stop-color="#00B8E0"/>
<stop offset="0.7604" stop-color="#00C4E0"/>
<stop offset="1" stop-color="#00C7E0"/>
</linearGradient>
<linearGradient id="paint7_linear_981_2095" x1="26.4108" y1="25.2919" x2="5.93503" y2="45.7673" gradientUnits="userSpaceOnUse">
<stop stop-color="#E0333C"/>
<stop offset="1" stop-color="#AB0F56"/>
</linearGradient>
<linearGradient id="paint8_linear_981_2095" x1="34.5702" y1="23.2004" x2="12.7446" y2="23.2004" gradientUnits="userSpaceOnUse">
<stop stop-color="#E0C500"/>
<stop offset="0.4087" stop-color="#E0A600"/>
<stop offset="0.7754" stop-color="#E09100"/>
<stop offset="1" stop-color="#E08900"/>
</linearGradient>
<linearGradient id="paint9_linear_981_2095" x1="34.5686" y1="23.1968" x2="12.743" y2="23.1968" gradientUnits="userSpaceOnUse">
<stop stop-color="#FFE840"/>
<stop offset="0.4087" stop-color="#FFCE40"/>
<stop offset="0.7754" stop-color="#FFBC40"/>
<stop offset="1" stop-color="#FFB540"/>
</linearGradient>
<linearGradient id="paint10_linear_981_2095" x1="23.7148" y1="13.0113" x2="8.57711" y2="28.149" gradientUnits="userSpaceOnUse">
<stop stop-color="#40B8FF"/>
<stop offset="0.00657445" stop-color="#40B9FF"/>
<stop offset="0.2601" stop-color="#40CEFF"/>
<stop offset="0.5122" stop-color="#40DDFF"/>
<stop offset="0.7604" stop-color="#40E7FF"/>
<stop offset="1" stop-color="#40EAFF"/>
</linearGradient>
<linearGradient id="paint11_linear_981_2095" x1="10.6323" y1="5.31581" x2="19.7988" y2="14.4824" gradientUnits="userSpaceOnUse">
<stop stop-color="#65B895"/>
<stop offset="0.0685" stop-color="#62BD95"/>
<stop offset="0.4762" stop-color="#50DB97"/>
<stop offset="0.8009" stop-color="#44ED98"/>
<stop offset="1" stop-color="#40F498"/>
</linearGradient>
<clipPath id="clip0_981_2095">
<rect width="153.7" height="46.4" fill="white"/>
</clipPath>
</defs>
</svg>
