<svg width="31" height="31" viewBox="0 0 31 31" fill="none" xmlns="http://www.w3.org/2000/svg">
<path d="M30.6985 12.4643H29.45V12.4H15.5V18.6H24.2598C22.9818 22.2092 19.5478 24.8 15.5 24.8C10.3641 24.8 6.2 20.6359 6.2 15.5C6.2 10.3641 10.3641 6.2 15.5 6.2C17.8707 6.2 20.0275 7.09435 21.6698 8.55522L26.0539 4.17105C23.2856 1.59107 19.5827 0 15.5 0C6.94012 0 0 6.94012 0 15.5C0 24.0599 6.94012 31 15.5 31C24.0599 31 31 24.0599 31 15.5C31 14.4607 30.893 13.4462 30.6985 12.4643Z" fill="#FFC107"/>
<path d="M1.78711 8.28552L6.87963 12.0202C8.25758 8.6087 11.5947 6.2 15.5 6.2C17.8707 6.2 20.0275 7.09435 21.6697 8.55522L26.0539 4.17105C23.2856 1.59107 19.5827 0 15.5 0C9.54641 0 4.38336 3.36117 1.78711 8.28552Z" fill="#FF3D00"/>
<path d="M15.5 31C19.5037 31 23.1415 29.4678 25.892 26.9762L21.0948 22.9167C19.4863 24.14 17.5208 24.8016 15.5 24.8C11.4685 24.8 8.04532 22.2293 6.75572 18.6418L1.70117 22.5362C4.26642 27.5559 9.47597 31 15.5 31Z" fill="#4CAF50"/>
<path d="M30.6985 12.4643H29.45V12.4H15.5V18.6H24.2598C23.6485 20.3177 22.5474 21.8187 21.0924 22.9175L21.0947 22.916L25.892 26.9754C25.5525 27.2839 31 23.25 31 15.5C31 14.4607 30.893 13.4462 30.6985 12.4643Z" fill="#1976D2"/>
</svg>
