<svg width="44" height="44" viewBox="0 0 44 44" fill="none" xmlns="http://www.w3.org/2000/svg">
<path d="M23.8846 3.66827C25.2224 3.66314 26.5603 3.67658 27.8978 3.7086L28.2534 3.72144C28.6641 3.7361 29.0693 3.75444 29.5588 3.77644C31.5094 3.8681 32.8404 4.17611 34.0083 4.62894C35.2183 5.09461 36.2376 5.72527 37.2569 6.7446C38.1889 7.66055 38.9103 8.76851 39.3708 9.99144C39.8236 11.1593 40.1316 12.4921 40.2233 14.4428C40.2453 14.9304 40.2636 15.3374 40.2783 15.7481L40.2893 16.1038C40.3218 17.4406 40.3359 18.7779 40.3314 20.1151L40.3333 21.4828V23.8844C40.3378 25.2223 40.3237 26.5601 40.2911 27.8976L40.2801 28.2533C40.2654 28.6639 40.2471 29.0691 40.2251 29.5586C40.1334 31.5093 39.8218 32.8403 39.3708 34.0081C38.9118 35.2323 38.1903 36.3412 37.2569 37.2568C36.3402 38.1887 35.2317 38.91 34.0083 39.3706C32.8404 39.8234 31.5094 40.1314 29.5588 40.2231C29.0693 40.2451 28.6641 40.2634 28.2534 40.2781L27.8978 40.2891C26.5603 40.3217 25.2224 40.3358 23.8846 40.3313L22.5169 40.3331H20.1171C18.7792 40.3376 17.4414 40.3236 16.1039 40.2909L15.7483 40.2799C15.313 40.2642 14.8779 40.2458 14.4429 40.2249C12.4923 40.1333 11.1613 39.8216 9.99158 39.3706C8.76817 38.9111 7.66002 38.1896 6.74475 37.2568C5.81167 36.3406 5.08966 35.232 4.62909 34.0081C4.17625 32.8403 3.86825 31.5093 3.77659 29.5586C3.75617 29.1236 3.73783 28.6885 3.72159 28.2533L3.71242 27.8976C3.67862 26.5602 3.66334 25.2223 3.66659 23.8844V20.1151C3.66147 18.7779 3.67491 17.4406 3.70692 16.1038L3.71975 15.7481C3.73442 15.3374 3.75275 14.9304 3.77475 14.4428C3.86642 12.4903 4.17442 11.1611 4.62725 9.99144C5.0881 8.76791 5.81152 7.66025 6.74659 6.74644C7.66123 5.81282 8.76868 5.09015 9.99158 4.62894C11.1613 4.17611 12.4904 3.8681 14.4429 3.77644L15.7483 3.72144L16.1039 3.71227C17.4408 3.67849 18.778 3.66321 20.1153 3.66644L23.8846 3.66827ZM21.9999 12.8349C20.7853 12.8178 19.5795 13.0421 18.4524 13.4951C17.3253 13.948 16.2994 14.6204 15.4345 15.4732C14.5695 16.326 13.8827 17.3423 13.4138 18.4628C12.945 19.5834 12.7036 20.786 12.7036 22.0007C12.7036 23.2154 12.945 24.418 13.4138 25.5385C13.8827 26.6591 14.5695 27.6754 15.4345 28.5282C16.2994 29.381 17.3253 30.0534 18.4524 30.5063C19.5795 30.9592 20.7853 31.1836 21.9999 31.1664C24.4311 31.1664 26.7626 30.2007 28.4817 28.4816C30.2008 26.7625 31.1666 24.4309 31.1666 21.9998C31.1666 19.5686 30.2008 17.237 28.4817 15.518C26.7626 13.7989 24.4311 12.8349 21.9999 12.8349ZM21.9999 16.5016C22.7305 16.4881 23.4565 16.6204 24.1354 16.8907C24.8143 17.1609 25.4325 17.5637 25.954 18.0756C26.4755 18.5875 26.8897 19.1981 27.1726 19.8719C27.4554 20.5457 27.6011 21.269 27.6012 21.9998C27.6014 22.7305 27.4559 23.4539 27.1733 24.1278C26.8907 24.8016 26.4766 25.4124 25.9553 25.9245C25.434 26.4365 24.8159 26.8395 24.1371 27.11C23.4583 27.3805 22.7324 27.513 22.0018 27.4998C20.5431 27.4998 19.1441 26.9203 18.1127 25.8889C17.0812 24.8574 16.5018 23.4585 16.5018 21.9998C16.5018 20.5411 17.0812 19.1421 18.1127 18.1107C19.1441 17.0792 20.5431 16.4998 22.0018 16.4998L21.9999 16.5016ZM31.6249 10.0849C31.0335 10.1086 30.4741 10.3602 30.064 10.7871C29.6539 11.2139 29.4249 11.7829 29.4249 12.3748C29.4249 12.9667 29.6539 13.5357 30.064 13.9625C30.4741 14.3893 31.0335 14.6409 31.6249 14.6646C32.2327 14.6646 32.8156 14.4232 33.2454 13.9934C33.6751 13.5636 33.9166 12.9807 33.9166 12.3729C33.9166 11.7652 33.6751 11.1823 33.2454 10.7525C32.8156 10.3227 32.2327 10.0813 31.6249 10.0813V10.0849Z" fill="#F4F4F4"/>
</svg>
