<svg width="39" height="36" viewBox="0 0 39 36" fill="none" xmlns="http://www.w3.org/2000/svg">
<path d="M8.35059 6.0379V3.54997C8.35059 2.87368 8.64103 2.22508 9.15801 1.74687C9.675 1.26866 10.3762 1 11.1073 1H34.9989C35.7301 1 36.4313 1.26866 36.9482 1.74687C37.4652 2.22508 37.7557 2.87368 37.7557 3.54997V25.6497C37.7557 26.326 37.4652 26.9746 36.9482 27.4528C36.4313 27.931 35.7301 28.1997 34.9989 28.1997H32.2578" stroke="#040606"/>
<path d="M29.4862 6.10156H3.75673C2.23423 6.10156 1 7.24322 1 8.65154V32.4513C1 33.8596 2.23423 35.0013 3.75673 35.0013H29.4862C31.0087 35.0013 32.2429 33.8596 32.2429 32.4513V8.65154C32.2429 7.24322 31.0087 6.10156 29.4862 6.10156Z" stroke="#040606" stroke-linejoin="round"/>
<path d="M14.2694 17.2416L19.1322 12.5581C20.4656 11.3248 22.6581 11.3512 24.0282 12.6193C25.3983 13.8867 25.4277 15.9148 24.0943 17.1481L22.3392 18.8676M9.69871 22.033C9.23006 22.4665 8.26062 23.3335 8.26062 23.3335C6.92636 24.5668 6.8896 26.7657 8.26062 28.0339C9.62979 29.3004 11.8223 29.3285 13.1566 28.0943L17.9018 24.1095" stroke="#040606" stroke-linecap="round" stroke-linejoin="round"/>
<path d="M14.474 21.6772C13.8636 21.1162 13.4943 20.3692 13.4347 19.5752C13.3995 19.1297 13.4683 18.6825 13.6364 18.2638C13.8044 17.8451 14.0679 17.4647 14.4088 17.1484M17.8354 19.5803C19.2055 20.8476 19.2349 22.8757 17.9016 24.1099" stroke="#040606" stroke-linecap="round" stroke-linejoin="round"/>
</svg>
