<svg width="22" height="22" viewBox="0 0 22 22" fill="none" xmlns="http://www.w3.org/2000/svg">
<path d="M14.4794 2.63438C15.9134 1.19438 18.0114 1.16438 19.1724 2.33038C20.3364 3.49838 20.3054 5.61038 18.8694 7.05038L16.4464 9.48338C16.31 9.62502 16.2347 9.81459 16.2366 10.0112C16.2386 10.2079 16.3178 10.3959 16.457 10.5348C16.5963 10.6736 16.7845 10.7522 16.9812 10.7537C17.1778 10.7551 17.3672 10.6792 17.5084 10.5424L19.9324 8.10938C21.8434 6.19038 22.0834 3.12738 20.2354 1.27138C18.3854 -0.585618 15.3284 -0.343618 13.4154 1.57538L8.56944 6.44238C6.65844 8.36138 6.41844 11.4244 8.26644 13.2794C8.33546 13.3512 8.41808 13.4085 8.50949 13.448C8.60089 13.4875 8.69925 13.5084 8.79882 13.5095C8.89839 13.5106 8.99719 13.4918 9.08944 13.4543C9.18169 13.4168 9.26555 13.3614 9.33612 13.2911C9.4067 13.2209 9.46258 13.1373 9.50051 13.0452C9.53844 12.9531 9.55765 12.8544 9.55703 12.7548C9.55641 12.6553 9.53596 12.5568 9.49689 12.4652C9.45781 12.3736 9.40089 12.2907 9.32944 12.2214C8.16544 11.0534 8.19744 8.94138 9.63244 7.50138L14.4794 2.63438Z" fill="#A94802"/>
<path d="M13.2355 8.2206C13.0949 8.07963 12.9041 8.00028 12.705 8C12.5059 7.99972 12.3149 8.07853 12.174 8.2191C12.033 8.35966 11.9536 8.55046 11.9534 8.74953C11.9531 8.9486 12.0319 9.13963 12.1725 9.28059C13.3365 10.4486 13.3055 12.5596 11.8695 14.0006L7.02246 18.8666C5.58746 20.3066 3.48946 20.3366 2.32846 19.1706C1.16446 18.0026 1.19646 15.8906 2.63146 14.4506L5.05546 12.0176C5.12499 11.9478 5.1801 11.865 5.21763 11.7739C5.25516 11.6828 5.27438 11.5852 5.2742 11.4867C5.27401 11.3882 5.25442 11.2906 5.21655 11.1997C5.17868 11.1087 5.12326 11.0261 5.05346 10.9566C4.98366 10.8871 4.90085 10.832 4.80976 10.7944C4.71866 10.7569 4.62107 10.7377 4.52254 10.7379C4.42402 10.738 4.3265 10.7576 4.23555 10.7955C4.1446 10.8334 4.06199 10.8888 3.99246 10.9586L1.56846 13.3916C-0.342541 15.3116 -0.582541 18.3736 1.26546 20.2296C3.11546 22.0876 6.17246 21.8446 8.08546 19.9256L12.9325 15.0586C14.8435 13.1406 15.0835 10.0756 13.2355 8.2206Z" fill="#A94802"/>
</svg>
