<svg width="54" height="54" viewBox="0 0 54 54" fill="none" xmlns="http://www.w3.org/2000/svg">
<g filter="url(#filter0_d_292_265)">
<path d="M23.9143 15C26.2785 15 28.5459 15.9392 30.2176 17.6109C31.8894 19.2827 32.8286 21.5501 32.8286 23.9143C32.8286 26.1223 32.0194 28.152 30.6891 29.7154L31.0594 30.0857H32.1429L39 36.9429L36.9429 39L30.0857 32.1429V31.0594L29.7154 30.6891C28.0979 32.0699 26.041 32.8284 23.9143 32.8286C21.5501 32.8286 19.2827 31.8894 17.6109 30.2176C15.9392 28.5459 15 26.2785 15 23.9143C15 21.5501 15.9392 19.2827 17.6109 17.6109C19.2827 15.9392 21.5501 15 23.9143 15ZM23.9143 17.7429C20.4857 17.7429 17.7429 20.4857 17.7429 23.9143C17.7429 27.3429 20.4857 30.0857 23.9143 30.0857C27.3429 30.0857 30.0857 27.3429 30.0857 23.9143C30.0857 20.4857 27.3429 17.7429 23.9143 17.7429Z" fill="#040606"/>
</g>
<defs>
<filter id="filter0_d_292_265" x="0.2" y="0.2" width="53.6" height="53.6" filterUnits="userSpaceOnUse" color-interpolation-filters="sRGB">
<feFlood flood-opacity="0" result="BackgroundImageFix"/>
<feColorMatrix in="SourceAlpha" type="matrix" values="0 0 0 0 0 0 0 0 0 0 0 0 0 0 0 0 0 0 127 0" result="hardAlpha"/>
<feOffset/>
<feGaussianBlur stdDeviation="7.4"/>
<feComposite in2="hardAlpha" operator="out"/>
<feColorMatrix type="matrix" values="0 0 0 0 0 0 0 0 0 0 0 0 0 0 0 0 0 0 0.25 0"/>
<feBlend mode="normal" in2="BackgroundImageFix" result="effect1_dropShadow_292_265"/>
<feBlend mode="normal" in="SourceGraphic" in2="effect1_dropShadow_292_265" result="shape"/>
</filter>
</defs>
</svg>
