<svg width="48" height="48" viewBox="0 0 48 48" fill="none" xmlns="http://www.w3.org/2000/svg">
<path d="M12.5 37.8V35.5C12.5 32.45 13.7116 29.5249 15.8683 27.3683C18.0249 25.2116 20.95 24 24 24C27.05 24 29.9751 25.2116 32.1317 27.3683C34.2884 29.5249 35.5 32.45 35.5 35.5V37.8" stroke="#F4F4F4" stroke-width="1.5" stroke-linecap="round"/>
<path d="M23.9996 24.0002C25.8296 24.0002 27.5846 23.2732 28.8786 21.9792C30.1726 20.6852 30.8996 18.9302 30.8996 17.1002C30.8996 15.2702 30.1726 13.5152 28.8786 12.2212C27.5846 10.9272 25.8296 10.2002 23.9996 10.2002C22.1696 10.2002 20.4146 10.9272 19.1206 12.2212C17.8266 13.5152 17.0996 15.2702 17.0996 17.1002C17.0996 18.9302 17.8266 20.6852 19.1206 21.9792C20.4146 23.2732 22.1696 24.0002 23.9996 24.0002Z" stroke="#F4F4F4" stroke-width="1.5" stroke-linecap="round" stroke-linejoin="round"/>
<path d="M24 47C36.7025 47 47 36.7025 47 24C47 11.2975 36.7025 1 24 1C11.2975 1 1 11.2975 1 24C1 36.7025 11.2975 47 24 47Z" stroke="#F4F4F4" stroke-width="1.5"/>
</svg>
