<svg width="18" height="23" viewBox="0 0 18 23" fill="none" xmlns="http://www.w3.org/2000/svg">
<path d="M16 23C16.55 23 17.0207 22.75 17.412 22.2499C17.8033 21.7499 17.9993 21.1481 18 20.4444V15.3333H16V20.4444H2V2.55556H16V7.66667H18V2.55556C18 1.85278 17.804 1.25137 17.412 0.751333C17.02 0.251296 16.5493 0.000851852 16 0H2C1.45 0 0.979 0.250445 0.587 0.751333C0.195 1.25222 -0.000667572 1.85363 0 2.55556V20.4444C0 21.1472 0.195667 21.7491 0.587 22.2499C0.978333 22.7508 1.44933 23.0009 2 23H16ZM10.5 17.8889L11.9 16.0361L9.35 12.7778H18V10.2222H9.35L11.9 6.96389L10.5 5.11111L5.5 11.5L10.5 17.8889Z" fill="#F4F4F4"/>
</svg>
