<svg width="25" height="25" viewBox="0 0 25 25" fill="none" xmlns="http://www.w3.org/2000/svg">
<path d="M22.089 13.3299L12.5106 24L2.93227 13.3299C2.30049 12.6384 1.80284 11.8072 1.47067 10.8888C1.1385 9.97031 0.979002 8.98445 1.00221 7.99325C1.02543 7.00206 1.23085 6.02701 1.60555 5.1295C1.98025 4.23199 2.51611 3.43147 3.17938 2.77834C3.84265 2.12521 4.61897 1.63362 5.45944 1.33454C6.29992 1.03545 7.18635 0.935346 8.06292 1.04052C8.93948 1.1457 9.78719 1.45388 10.5527 1.94565C11.3181 2.43743 11.9848 3.10215 12.5106 3.89796C13.0388 3.10793 13.7062 2.44901 14.4711 1.96246C15.2361 1.4759 16.0821 1.17217 16.9562 1.07028C17.8303 0.968394 18.7137 1.07054 19.5511 1.37032C20.3885 1.67011 21.1619 2.16108 21.8228 2.8125C22.4837 3.46393 23.018 4.26179 23.3922 5.15616C23.7664 6.05052 23.9724 7.02212 23.9974 8.01017C24.0224 8.99821 23.8658 9.98142 23.5374 10.8983C23.2091 11.8151 22.716 12.6458 22.089 13.3385" stroke="#F4F4F4" stroke-width="2" stroke-linecap="round" stroke-linejoin="round"/>
<path d="M12.5101 3.88916L8.30459 8.61948C8.06516 8.88885 7.93066 9.25416 7.93066 9.63506C7.93066 10.016 8.06516 10.3813 8.30459 10.6507L8.99806 11.4307C9.87927 12.4218 11.3096 12.4218 12.1909 11.4307L13.468 9.99418C13.8452 9.5694 14.2931 9.23242 14.7861 9.0025C15.2792 8.77258 15.8077 8.65424 16.3415 8.65424C16.8752 8.65424 17.4038 8.77258 17.8968 9.0025C18.3899 9.23242 18.8378 9.5694 19.215 9.99418L22.0885 13.2263M13.1487 17.5357L15.7029 20.4086M16.3415 13.9445L18.8957 16.8174" stroke="#F4F4F4" stroke-width="2" stroke-linecap="round" stroke-linejoin="round"/>
</svg>
