<svg width="65" height="37" viewBox="0 0 65 37" fill="none" xmlns="http://www.w3.org/2000/svg">
<path fill-rule="evenodd" clip-rule="evenodd" d="M45.2378 36.8624C56.1131 36.8624 64.9292 28.6209 64.9292 18.4545C64.9292 8.28803 56.1131 0.0465088 45.2378 0.0465088C40.3637 0.0465088 35.9032 1.70197 32.4646 4.44424C29.026 1.70202 24.5655 0.0465957 19.6915 0.0465957C8.81616 0.0465957 0 8.28812 0 18.4546C0 28.621 8.81616 36.8625 19.6915 36.8625C24.5656 36.8625 29.0261 35.2071 32.4647 32.4648C35.9033 35.207 40.3637 36.8624 45.2378 36.8624Z" fill="#ED0006"/>
<path fill-rule="evenodd" clip-rule="evenodd" d="M32.4639 32.4656C36.6984 29.0893 39.3835 24.0649 39.3835 18.4543C39.3835 12.8437 36.6984 7.8193 32.4639 4.44294C35.9023 1.70134 40.3622 0.0463257 45.2357 0.0463257C56.111 0.0463257 64.9271 8.28785 64.9271 18.4543C64.9271 28.6207 56.111 36.8622 45.2357 36.8622C40.3622 36.8622 35.9023 35.2072 32.4639 32.4656Z" fill="#F9A000"/>
<path fill-rule="evenodd" clip-rule="evenodd" d="M32.4652 32.4648C36.699 29.0884 39.3835 24.0645 39.3835 18.4545C39.3835 12.8444 36.699 7.82051 32.4652 4.44415C28.2315 7.82051 25.5469 12.8444 25.5469 18.4545C25.5469 24.0645 28.2315 29.0884 32.4652 32.4648Z" fill="#FF5E00"/>
</svg>
