<svg width="26" height="23" viewBox="0 0 26 23" fill="none" xmlns="http://www.w3.org/2000/svg">
<mask id="path-1-inside-1_273_363" fill="white">
<path d="M4.58824 5.53704C4.58824 4.52037 4.95079 3.54535 5.59613 2.82646C6.24148 2.10757 7.11676 1.7037 8.02941 1.7037C8.94207 1.7037 9.81734 2.10757 10.4627 2.82646C11.108 3.54535 11.4706 4.52037 11.4706 5.53704C11.4706 6.5537 11.108 7.52872 10.4627 8.24761C9.81734 8.9665 8.94207 9.37037 8.02941 9.37037C7.11676 9.37037 6.24148 8.9665 5.59613 8.24761C4.95079 7.52872 4.58824 6.5537 4.58824 5.53704ZM8.02941 0C6.71113 0 5.44684 0.583365 4.51468 1.62176C3.58251 2.66016 3.05882 4.06852 3.05882 5.53704C3.05882 7.00555 3.58251 8.41392 4.51468 9.45231C5.44684 10.4907 6.71113 11.0741 8.02941 11.0741C9.34769 11.0741 10.612 10.4907 11.5441 9.45231C12.4763 8.41392 13 7.00555 13 5.53704C13 4.06852 12.4763 2.66016 11.5441 1.62176C10.612 0.583365 9.34769 0 8.02941 0ZM16.7272 19.8396C17.55 20.2144 18.5854 20.4444 19.8824 20.4444C22.7592 20.4444 24.3498 19.3064 25.1879 18.0013C25.6251 17.3165 25.8993 16.5193 25.9847 15.6843C25.9924 15.6067 25.9975 15.5289 26 15.4509V15.3333C26 14.9977 25.9407 14.6654 25.8254 14.3554C25.7101 14.0453 25.5411 13.7636 25.3281 13.5263C25.115 13.289 24.8621 13.1007 24.5838 12.9723C24.3055 12.8439 24.0072 12.7778 23.7059 12.7778H16.6247C16.9918 13.2719 17.2671 13.8494 17.4276 14.4815H23.7059C23.9087 14.4815 24.1032 14.5712 24.2466 14.731C24.39 14.8907 24.4706 15.1074 24.4706 15.3333V15.4253L24.4629 15.5105C24.4044 16.0507 24.2256 16.566 23.9429 17.0098C23.4428 17.7918 22.3569 18.7407 19.8824 18.7407C18.7628 18.7407 17.9278 18.5465 17.3022 18.262C17.1768 18.739 16.9948 19.2774 16.7272 19.8396ZM0 16.1852C0 15.2815 0.322268 14.4148 0.895909 13.7758C1.46955 13.1368 2.24757 12.7778 3.05882 12.7778H13C13.8113 12.7778 14.5893 13.1368 15.1629 13.7758C15.7366 14.4148 16.0588 15.2815 16.0588 16.1852V16.3283C16.0588 16.3453 16.0588 16.3675 16.0558 16.3964C16.0372 16.7338 15.9937 17.0688 15.9258 17.3982C15.7958 18.0252 15.5373 18.8634 15.0158 19.705C13.9436 21.4326 11.8728 23 8.02941 23C4.186 23 2.11518 21.4326 1.04306 19.705C0.478437 18.7889 0.12638 17.7312 0.0183529 16.6264C0.00921384 16.5273 0.00309274 16.4279 0 16.3283V16.2908V16.1852ZM1.52941 16.2874V16.3181L1.54012 16.4595C1.62299 17.2762 1.88452 18.0578 2.30176 18.7356C3.04659 19.935 4.60812 21.2963 8.02941 21.2963C11.4507 21.2963 13.0122 19.935 13.7571 18.7356C14.1744 18.0578 14.436 17.2762 14.5187 16.4595C14.5237 16.4125 14.5268 16.3653 14.5279 16.3181L14.5294 16.2891V16.1852C14.5294 15.7333 14.3683 15.3 14.0815 14.9805C13.7946 14.661 13.4056 14.4815 13 14.4815H3.05882C2.6532 14.4815 2.26419 14.661 1.97737 14.9805C1.69055 15.3 1.52941 15.7333 1.52941 16.1852V16.2874ZM17.5882 6.81482C17.5882 6.13704 17.8299 5.48702 18.2602 5.00776C18.6904 4.5285 19.2739 4.25926 19.8824 4.25926C20.4908 4.25926 21.0743 4.5285 21.5045 5.00776C21.9348 5.48702 22.1765 6.13704 22.1765 6.81482C22.1765 7.49259 21.9348 8.14261 21.5045 8.62187C21.0743 9.10113 20.4908 9.37037 19.8824 9.37037C19.2739 9.37037 18.6904 9.10113 18.2602 8.62187C17.8299 8.14261 17.5882 7.49259 17.5882 6.81482ZM19.8824 2.55556C18.8683 2.55556 17.8958 3.0043 17.1787 3.80306C16.4617 4.60183 16.0588 5.68519 16.0588 6.81482C16.0588 7.94444 16.4617 9.0278 17.1787 9.82657C17.8958 10.6253 18.8683 11.0741 19.8824 11.0741C20.8964 11.0741 21.8689 10.6253 22.586 9.82657C23.303 9.0278 23.7059 7.94444 23.7059 6.81482C23.7059 5.68519 23.303 4.60183 22.586 3.80306C21.8689 3.0043 20.8964 2.55556 19.8824 2.55556Z"/>
</mask>
<path d="M4.58824 5.53704C4.58824 4.52037 4.95079 3.54535 5.59613 2.82646C6.24148 2.10757 7.11676 1.7037 8.02941 1.7037C8.94207 1.7037 9.81734 2.10757 10.4627 2.82646C11.108 3.54535 11.4706 4.52037 11.4706 5.53704C11.4706 6.5537 11.108 7.52872 10.4627 8.24761C9.81734 8.9665 8.94207 9.37037 8.02941 9.37037C7.11676 9.37037 6.24148 8.9665 5.59613 8.24761C4.95079 7.52872 4.58824 6.5537 4.58824 5.53704ZM8.02941 0C6.71113 0 5.44684 0.583365 4.51468 1.62176C3.58251 2.66016 3.05882 4.06852 3.05882 5.53704C3.05882 7.00555 3.58251 8.41392 4.51468 9.45231C5.44684 10.4907 6.71113 11.0741 8.02941 11.0741C9.34769 11.0741 10.612 10.4907 11.5441 9.45231C12.4763 8.41392 13 7.00555 13 5.53704C13 4.06852 12.4763 2.66016 11.5441 1.62176C10.612 0.583365 9.34769 0 8.02941 0ZM16.7272 19.8396C17.55 20.2144 18.5854 20.4444 19.8824 20.4444C22.7592 20.4444 24.3498 19.3064 25.1879 18.0013C25.6251 17.3165 25.8993 16.5193 25.9847 15.6843C25.9924 15.6067 25.9975 15.5289 26 15.4509V15.3333C26 14.9977 25.9407 14.6654 25.8254 14.3554C25.7101 14.0453 25.5411 13.7636 25.3281 13.5263C25.115 13.289 24.8621 13.1007 24.5838 12.9723C24.3055 12.8439 24.0072 12.7778 23.7059 12.7778H16.6247C16.9918 13.2719 17.2671 13.8494 17.4276 14.4815H23.7059C23.9087 14.4815 24.1032 14.5712 24.2466 14.731C24.39 14.8907 24.4706 15.1074 24.4706 15.3333V15.4253L24.4629 15.5105C24.4044 16.0507 24.2256 16.566 23.9429 17.0098C23.4428 17.7918 22.3569 18.7407 19.8824 18.7407C18.7628 18.7407 17.9278 18.5465 17.3022 18.262C17.1768 18.739 16.9948 19.2774 16.7272 19.8396ZM0 16.1852C0 15.2815 0.322268 14.4148 0.895909 13.7758C1.46955 13.1368 2.24757 12.7778 3.05882 12.7778H13C13.8113 12.7778 14.5893 13.1368 15.1629 13.7758C15.7366 14.4148 16.0588 15.2815 16.0588 16.1852V16.3283C16.0588 16.3453 16.0588 16.3675 16.0558 16.3964C16.0372 16.7338 15.9937 17.0688 15.9258 17.3982C15.7958 18.0252 15.5373 18.8634 15.0158 19.705C13.9436 21.4326 11.8728 23 8.02941 23C4.186 23 2.11518 21.4326 1.04306 19.705C0.478437 18.7889 0.12638 17.7312 0.0183529 16.6264C0.00921384 16.5273 0.00309274 16.4279 0 16.3283V16.2908V16.1852ZM1.52941 16.2874V16.3181L1.54012 16.4595C1.62299 17.2762 1.88452 18.0578 2.30176 18.7356C3.04659 19.935 4.60812 21.2963 8.02941 21.2963C11.4507 21.2963 13.0122 19.935 13.7571 18.7356C14.1744 18.0578 14.436 17.2762 14.5187 16.4595C14.5237 16.4125 14.5268 16.3653 14.5279 16.3181L14.5294 16.2891V16.1852C14.5294 15.7333 14.3683 15.3 14.0815 14.9805C13.7946 14.661 13.4056 14.4815 13 14.4815H3.05882C2.6532 14.4815 2.26419 14.661 1.97737 14.9805C1.69055 15.3 1.52941 15.7333 1.52941 16.1852V16.2874ZM17.5882 6.81482C17.5882 6.13704 17.8299 5.48702 18.2602 5.00776C18.6904 4.5285 19.2739 4.25926 19.8824 4.25926C20.4908 4.25926 21.0743 4.5285 21.5045 5.00776C21.9348 5.48702 22.1765 6.13704 22.1765 6.81482C22.1765 7.49259 21.9348 8.14261 21.5045 8.62187C21.0743 9.10113 20.4908 9.37037 19.8824 9.37037C19.2739 9.37037 18.6904 9.10113 18.2602 8.62187C17.8299 8.14261 17.5882 7.49259 17.5882 6.81482ZM19.8824 2.55556C18.8683 2.55556 17.8958 3.0043 17.1787 3.80306C16.4617 4.60183 16.0588 5.68519 16.0588 6.81482C16.0588 7.94444 16.4617 9.0278 17.1787 9.82657C17.8958 10.6253 18.8683 11.0741 19.8824 11.0741C20.8964 11.0741 21.8689 10.6253 22.586 9.82657C23.303 9.0278 23.7059 7.94444 23.7059 6.81482C23.7059 5.68519 23.303 4.60183 22.586 3.80306C21.8689 3.0043 20.8964 2.55556 19.8824 2.55556Z" fill="#040606"/>
<path d="M4.58824 5.53704H1.58824H4.58824ZM8.02941 1.7037V-1.2963V1.7037ZM8.02941 0V-3V0ZM3.05882 5.53704H0.0588236H3.05882ZM8.02941 11.0741V14.0741V11.0741ZM13 5.53704H10H13ZM16.7272 19.8396L14.0184 18.5501L12.707 21.3049L15.4836 22.5697L16.7272 19.8396ZM25.1879 18.0013L27.7122 19.6225L27.7164 19.6158L25.1879 18.0013ZM25.9847 15.6843L28.9692 15.9896L28.9702 15.9786L25.9847 15.6843ZM26 15.4509L28.9984 15.5488L29 15.4998V15.4509H26ZM16.6247 12.7778V9.77778H10.6586L14.2165 14.5669L16.6247 12.7778ZM17.4276 14.4815L14.52 15.2202L15.0945 17.4815H17.4276V14.4815ZM24.4706 15.4253L27.4586 15.6935L27.4706 15.5597V15.4253H24.4706ZM24.4629 15.5105L27.4455 15.8339L27.4485 15.8063L27.4509 15.7787L24.4629 15.5105ZM23.9429 17.0098L26.4703 18.6261L26.4731 18.6217L23.9429 17.0098ZM17.3022 18.262L18.5443 15.5312L15.3055 14.0581L14.4008 17.4992L17.3022 18.262ZM3.05882 12.7778V15.7778V12.7778ZM16.0558 16.3964L13.0724 16.0814L13.0645 16.1561L13.0603 16.2312L16.0558 16.3964ZM15.9258 17.3982L18.8633 18.0073L18.864 18.004L15.9258 17.3982ZM15.0158 19.705L17.5648 21.287L17.5659 21.2852L15.0158 19.705ZM1.04306 19.705L-1.51088 21.279L-1.50597 21.287L1.04306 19.705ZM0.0183529 16.6264L-2.96898 16.9019L-2.96821 16.9101L-2.96741 16.9184L0.0183529 16.6264ZM0 16.3283H-3V16.3749L-2.99855 16.4214L0 16.3283ZM1.52941 16.3181H-1.47059V16.4315L-1.46203 16.5446L1.52941 16.3181ZM1.54012 16.4595L-1.45132 16.686L-1.44843 16.7242L-1.44456 16.7623L1.54012 16.4595ZM2.30176 18.7356L-0.253066 20.3082L-0.246809 20.3183L2.30176 18.7356ZM13.7571 18.7356L16.3057 20.3183L16.3116 20.3086L13.7571 18.7356ZM14.5187 16.4595L11.5357 16.1408L11.5348 16.1489L11.534 16.1571L14.5187 16.4595ZM14.5279 16.3181L11.5321 16.1598L11.5297 16.2041L11.5287 16.2484L14.5279 16.3181ZM14.5294 16.2891L17.5252 16.4474L17.5294 16.3683V16.2891H14.5294ZM1.52941 16.1852H-1.47059H1.52941ZM17.5882 6.81482H14.5882H17.5882ZM19.8824 4.25926V1.25926V4.25926ZM22.1765 6.81482H25.1765H22.1765ZM19.8824 9.37037V12.3704V9.37037ZM19.8824 2.55556V-0.444444V2.55556ZM7.58824 5.53704C7.58824 5.21778 7.70504 4.96812 7.82857 4.83051L3.3637 0.822408C2.19654 2.12258 1.58824 3.82297 1.58824 5.53704H7.58824ZM7.82857 4.83051C7.88698 4.76545 7.93807 4.73398 7.96943 4.7195C7.99995 4.70542 8.01905 4.7037 8.02941 4.7037V-1.2963C6.21021 -1.2963 4.54042 -0.488419 3.3637 0.822408L7.82857 4.83051ZM8.02941 4.7037C8.03977 4.7037 8.05888 4.70542 8.08939 4.7195C8.12076 4.73398 8.17185 4.76545 8.23026 4.83051L12.6951 0.822408C11.5184 -0.488419 9.84861 -1.2963 8.02941 -1.2963V4.7037ZM8.23026 4.83051C8.35378 4.96812 8.47059 5.21778 8.47059 5.53704H14.4706C14.4706 3.82297 13.8623 2.12258 12.6951 0.822408L8.23026 4.83051ZM8.47059 5.53704C8.47059 5.85629 8.35378 6.10595 8.23026 6.24356L12.6951 10.2517C13.8623 8.95149 14.4706 7.25111 14.4706 5.53704H8.47059ZM8.23026 6.24356C8.17185 6.30862 8.12076 6.3401 8.08939 6.35457C8.05888 6.36865 8.03977 6.37037 8.02941 6.37037V12.3704C9.84861 12.3704 11.5184 11.5625 12.6951 10.2517L8.23026 6.24356ZM8.02941 6.37037C8.01905 6.37037 7.99995 6.36865 7.96943 6.35457C7.93807 6.3401 7.88698 6.30862 7.82857 6.24356L3.3637 10.2517C4.54042 11.5625 6.21021 12.3704 8.02941 12.3704V6.37037ZM7.82857 6.24356C7.70504 6.10595 7.58824 5.85629 7.58824 5.53704H1.58824C1.58824 7.25111 2.19654 8.95149 3.3637 10.2517L7.82857 6.24356ZM8.02941 -3C5.80459 -3 3.74579 -2.01263 2.28224 -0.382293L6.74711 3.62581C7.14789 3.17936 7.61767 3 8.02941 3V-3ZM2.28224 -0.382293C0.828256 1.23739 0.0588236 3.37112 0.0588236 5.53704H6.05882C6.05882 4.76593 6.33676 4.08293 6.74711 3.62581L2.28224 -0.382293ZM0.0588236 5.53704C0.0588236 7.70296 0.828256 9.83669 2.28224 11.4564L6.74711 7.44826C6.33676 6.99115 6.05882 6.30814 6.05882 5.53704H0.0588236ZM2.28224 11.4564C3.74579 13.0867 5.80459 14.0741 8.02941 14.0741V8.07407C7.61767 8.07407 7.1479 7.89472 6.74711 7.44826L2.28224 11.4564ZM8.02941 14.0741C10.2542 14.0741 12.313 13.0867 13.7766 11.4564L9.31171 7.44826C8.91093 7.89472 8.44115 8.07407 8.02941 8.07407V14.0741ZM13.7766 11.4564C15.2306 9.83669 16 7.70296 16 5.53704H10C10 6.30814 9.72206 6.99115 9.31171 7.44826L13.7766 11.4564ZM16 5.53704C16 3.37112 15.2306 1.23739 13.7766 -0.382293L9.31171 3.62581C9.72206 4.08293 10 4.76593 10 5.53704H16ZM13.7766 -0.382293C12.313 -2.01263 10.2542 -3 8.02941 -3V3C8.44115 3 8.91093 3.17936 9.31171 3.62581L13.7766 -0.382293ZM15.4836 22.5697C16.758 23.1502 18.229 23.4444 19.8824 23.4444V17.4444C18.9418 17.4444 18.342 17.2786 17.9708 17.1095L15.4836 22.5697ZM19.8824 23.4444C23.683 23.4444 26.2715 21.8657 27.7122 19.6225L22.6636 16.3802C22.5051 16.6271 22.2784 16.8622 21.917 17.0499C21.5485 17.2412 20.9203 17.4444 19.8824 17.4444V23.4444ZM27.7164 19.6158C28.4142 18.5229 28.8377 17.2746 28.9691 15.9896L23.0003 15.379C22.9609 15.7639 22.836 16.1101 22.6593 16.3869L27.7164 19.6158ZM28.9702 15.9786C28.9843 15.8357 28.9937 15.6923 28.9984 15.5488L23.0016 15.353C23.0012 15.3655 23.0004 15.3778 22.9992 15.39L28.9702 15.9786ZM29 15.4509V15.3333H23V15.4509H29ZM29 15.3333C29 14.6461 28.8788 13.9593 28.6373 13.3098L23.0135 15.4009C23.0025 15.3715 23 15.3494 23 15.3333H29ZM28.6373 13.3098C28.3957 12.6601 28.0345 12.0503 27.5605 11.5222L23.0956 15.5303C23.0477 15.4769 23.0245 15.4305 23.0135 15.4009L28.6373 13.3098ZM27.5605 11.5222C27.0859 10.9936 26.5048 10.5547 25.8407 10.2483L23.3269 15.6963C23.2195 15.6467 23.1442 15.5844 23.0956 15.5303L27.5605 11.5222ZM25.8407 10.2483C25.1754 9.94132 24.4489 9.77778 23.7059 9.77778V15.7778C23.5654 15.7778 23.4355 15.7464 23.3269 15.6963L25.8407 10.2483ZM23.7059 9.77778H16.6247V15.7778H23.7059V9.77778ZM14.2165 14.5669C14.3445 14.7391 14.4534 14.9581 14.52 15.2202L20.3353 13.7428C20.0807 12.7407 19.639 11.8046 19.0329 10.9887L14.2165 14.5669ZM17.4276 17.4815H23.7059V11.4815H17.4276V17.4815ZM23.7059 17.4815C23.0022 17.4815 22.4022 17.1672 22.0142 16.735L26.479 12.7269C25.8042 11.9752 24.8152 11.4815 23.7059 11.4815V17.4815ZM22.0142 16.735C21.6358 16.3135 21.4706 15.8048 21.4706 15.3333H27.4706C27.4706 14.41 27.1443 13.468 26.479 12.7269L22.0142 16.735ZM21.4706 15.3333V15.4253H27.4706V15.3333H21.4706ZM21.4826 15.1571L21.475 15.2423L27.4509 15.7787L27.4586 15.6935L21.4826 15.1571ZM21.4804 15.1871C21.4699 15.2842 21.4394 15.3561 21.4128 15.3979L26.4731 18.6217C27.0119 17.776 27.3388 16.8172 27.4455 15.8339L21.4804 15.1871ZM21.4156 15.3934C21.4127 15.3981 21.3901 15.4438 21.2675 15.5077C21.1302 15.5791 20.7338 15.7407 19.8824 15.7407V21.7407C23.2835 21.7407 25.3687 20.3486 26.4703 18.6261L21.4156 15.3934ZM19.8824 15.7407C19.1107 15.7407 18.7125 15.6077 18.5443 15.5312L16.0602 20.9928C17.143 21.4853 18.415 21.7407 19.8824 21.7407V15.7407ZM14.4008 17.4992C14.3155 17.8237 14.1938 18.1819 14.0184 18.5501L19.4359 21.1291C19.7959 20.3729 20.0381 19.6544 20.2036 19.0248L14.4008 17.4992ZM3 16.1852C3 15.9789 3.07652 15.8376 3.12834 15.7798L-1.33653 11.7717C-2.43198 12.992 -3 14.5841 -3 16.1852H3ZM3.12834 15.7798C3.1509 15.7547 3.15975 15.7544 3.14517 15.7612C3.13822 15.7644 3.12689 15.7687 3.11134 15.7721C3.09565 15.7756 3.07777 15.7778 3.05882 15.7778V9.77778C1.34103 9.77778 -0.231506 10.5408 -1.33653 11.7717L3.12834 15.7798ZM3.05882 15.7778H13V9.77778H3.05882V15.7778ZM13 15.7778C12.981 15.7778 12.9632 15.7756 12.9475 15.7721C12.9319 15.7687 12.9206 15.7644 12.9137 15.7612C12.8991 15.7544 12.9079 15.7547 12.9305 15.7798L17.3953 11.7717C16.2903 10.5408 14.7178 9.77778 13 9.77778V15.7778ZM12.9305 15.7798C12.9823 15.8376 13.0588 15.9789 13.0588 16.1852H19.0588C19.0588 14.5841 18.4908 12.992 17.3953 11.7717L12.9305 15.7798ZM13.0588 16.1852V16.3283H19.0588V16.1852H13.0588ZM13.0588 16.3283C13.0588 16.338 13.0586 16.3016 13.0602 16.2563C13.0618 16.2071 13.0653 16.1478 13.0724 16.0814L19.0392 16.7115C19.0598 16.5165 19.0588 16.3621 19.0588 16.3283H13.0588ZM13.0603 16.2312C13.0498 16.4212 13.0254 16.6089 12.9876 16.7924L18.864 18.004C18.962 17.5287 19.0245 17.0464 19.0512 16.5617L13.0603 16.2312ZM12.9882 16.7891C12.9085 17.1736 12.7546 17.6586 12.4657 18.1248L17.5659 21.2852C18.32 20.0682 18.683 18.8768 18.8633 18.0073L12.9882 16.7891ZM12.4667 18.1231C11.9775 18.9114 10.9046 20 8.02941 20V26C12.841 26 15.9098 23.9538 17.5648 21.287L12.4667 18.1231ZM8.02941 20C5.15421 20 4.08129 18.9114 3.59208 18.1231L-1.50597 21.287C0.14906 23.9538 3.21779 26 8.02941 26V20ZM3.59699 18.131C3.2797 17.6162 3.06912 16.9993 3.00411 16.3345L-2.96741 16.9184C-2.81636 18.463 -2.32282 19.9616 -1.51087 21.279L3.59699 18.131ZM3.00568 16.351C3.00214 16.3126 2.99976 16.2739 2.99855 16.2352L-2.99855 16.4214C-2.99357 16.5818 -2.98371 16.7421 -2.96898 16.9019L3.00568 16.351ZM3 16.3283V16.2908H-3V16.3283H3ZM3 16.2908V16.1852H-3V16.2908H3ZM-1.47059 16.2874V16.3181H4.52941V16.2874H-1.47059ZM-1.46203 16.5446L-1.45132 16.686L4.53156 16.233L4.52085 16.0916L-1.46203 16.5446ZM-1.44456 16.7623C-1.31747 18.0148 -0.915052 19.2327 -0.253046 20.3082L4.85658 17.1631C4.68409 16.8828 4.56345 16.5376 4.52479 16.1566L-1.44456 16.7623ZM-0.246809 20.3183C1.07851 22.4525 3.63518 24.2963 8.02941 24.2963V18.2963C6.72154 18.2963 5.98217 18.0384 5.58336 17.8239C5.19481 17.6148 4.98491 17.3697 4.85034 17.153L-0.246809 20.3183ZM8.02941 24.2963C12.4236 24.2963 14.9803 22.4525 16.3056 20.3183L11.2085 17.153C11.0739 17.3697 10.864 17.6148 10.4755 17.8239C10.0767 18.0384 9.33729 18.2963 8.02941 18.2963V24.2963ZM16.3116 20.3086C16.974 19.2329 17.3765 18.0146 17.5034 16.7619L11.534 16.1571C11.4954 16.5378 11.3749 16.8827 11.2025 17.1627L16.3116 20.3086ZM17.5017 16.7782C17.5156 16.6483 17.524 16.5181 17.5271 16.3877L11.5287 16.2484C11.5295 16.2126 11.5318 16.1767 11.5357 16.1408L17.5017 16.7782ZM17.5237 16.4763L17.5252 16.4474L11.5336 16.1309L11.5321 16.1598L17.5237 16.4763ZM17.5294 16.2891V16.1852H11.5294V16.2891H17.5294ZM17.5294 16.1852C17.5294 15.0359 17.1225 13.8772 16.3139 12.9764L11.849 16.9845C11.614 16.7228 11.5294 16.4307 11.5294 16.1852H17.5294ZM16.3139 12.9764C15.4957 12.065 14.3122 11.4815 13 11.4815V17.4815C12.4991 17.4815 12.0936 17.257 11.849 16.9845L16.3139 12.9764ZM13 11.4815H3.05882V17.4815H13V11.4815ZM3.05882 11.4815C1.74666 11.4815 0.563132 12.065 -0.25507 12.9764L4.2098 16.9845C3.96524 17.257 3.55974 17.4815 3.05882 17.4815V11.4815ZM-0.25507 12.9764C-1.06371 13.8772 -1.47059 15.0359 -1.47059 16.1852H4.52941C4.52941 16.4307 4.4448 16.7228 4.2098 16.9845L-0.25507 12.9764ZM-1.47059 16.1852V16.2874H4.52941V16.1852H-1.47059ZM20.5882 6.81482C20.5882 6.83105 20.5856 6.8533 20.5748 6.88242C20.564 6.91142 20.5409 6.95805 20.4926 7.01182L16.0277 3.00371C15.0757 4.06425 14.5882 5.43963 14.5882 6.81482H20.5882ZM20.4926 7.01182C20.3915 7.1245 20.1805 7.25926 19.8824 7.25926V1.25926C18.3674 1.25926 16.9893 1.93251 16.0277 3.00371L20.4926 7.01182ZM19.8824 7.25926C19.5843 7.25926 19.3733 7.1245 19.2721 7.01182L23.737 3.00371C22.7754 1.93251 21.3973 1.25926 19.8824 1.25926V7.25926ZM19.2721 7.01182C19.2238 6.95805 19.2007 6.91142 19.1899 6.88242C19.1791 6.8533 19.1765 6.83105 19.1765 6.81482H25.1765C25.1765 5.43963 24.689 4.06425 23.737 3.00371L19.2721 7.01182ZM19.1765 6.81482C19.1765 6.79858 19.1791 6.77633 19.1899 6.74721C19.2007 6.71821 19.2238 6.67158 19.2721 6.61781L23.737 10.6259C24.689 9.56538 25.1765 8.19 25.1765 6.81482H19.1765ZM19.2721 6.61781C19.3733 6.50513 19.5843 6.37037 19.8824 6.37037V12.3704C21.3973 12.3704 22.7754 11.6971 23.737 10.6259L19.2721 6.61781ZM19.8824 6.37037C20.1805 6.37037 20.3915 6.50513 20.4926 6.61781L16.0277 10.6259C16.9893 11.6971 18.3674 12.3704 19.8824 12.3704V6.37037ZM20.4926 6.61781C20.5409 6.67158 20.564 6.71821 20.5748 6.74721C20.5856 6.77633 20.5882 6.79858 20.5882 6.81482H14.5882C14.5882 8.19 15.0757 9.56538 16.0277 10.6259L20.4926 6.61781ZM19.8824 -0.444444C17.9617 -0.444444 16.1947 0.408306 14.9463 1.79901L19.4111 5.80712C19.5968 5.60029 19.7748 5.55556 19.8824 5.55556V-0.444444ZM14.9463 1.79901C13.7074 3.17906 13.0588 4.98778 13.0588 6.81482H19.0588C19.0588 6.3826 19.2159 6.0246 19.4111 5.80712L14.9463 1.79901ZM13.0588 6.81482C13.0588 8.64185 13.7074 10.4506 14.9463 11.8306L19.4111 7.82251C19.2159 7.60503 19.0588 7.24703 19.0588 6.81482H13.0588ZM14.9463 11.8306C16.1947 13.2213 17.9617 14.0741 19.8824 14.0741V8.07407C19.7748 8.07407 19.5968 8.02934 19.4111 7.82251L14.9463 11.8306ZM19.8824 14.0741C21.803 14.0741 23.57 13.2213 24.8184 11.8306L20.3536 7.82251C20.1679 8.02934 19.9899 8.07407 19.8824 8.07407V14.0741ZM24.8184 11.8306C26.0573 10.4506 26.7059 8.64185 26.7059 6.81482H20.7059C20.7059 7.24703 20.5488 7.60503 20.3536 7.82251L24.8184 11.8306ZM26.7059 6.81482C26.7059 4.98778 26.0573 3.17906 24.8184 1.79901L20.3536 5.80712C20.5488 6.0246 20.7059 6.3826 20.7059 6.81482H26.7059ZM24.8184 1.79901C23.57 0.408306 21.803 -0.444444 19.8824 -0.444444V5.55556C19.9899 5.55556 20.1679 5.60029 20.3536 5.80712L24.8184 1.79901Z" fill="#040606" mask="url(#path-1-inside-1_273_363)"/>
</svg>
