<svg width="16" height="26" viewBox="0 0 16 26" fill="none" xmlns="http://www.w3.org/2000/svg">
<path d="M12.8 1.6C13.2243 1.6 13.6313 1.76857 13.9314 2.06863C14.2314 2.36869 14.4 2.77565 14.4 3.2V22.4C14.4 22.8243 14.2314 23.2313 13.9314 23.5314C13.6313 23.8314 13.2243 24 12.8 24H3.2C2.77565 24 2.36869 23.8314 2.06863 23.5314C1.76857 23.2313 1.6 22.8243 1.6 22.4V3.2C1.6 2.77565 1.76857 2.36869 2.06863 2.06863C2.36869 1.76857 2.77565 1.6 3.2 1.6H12.8ZM3.2 0C2.35131 0 1.53737 0.337142 0.937258 0.937258C0.337142 1.53737 0 2.35131 0 3.2V22.4C0 23.2487 0.337142 24.0626 0.937258 24.6627C1.53737 25.2629 2.35131 25.6 3.2 25.6H12.8C13.6487 25.6 14.4626 25.2629 15.0627 24.6627C15.6629 24.0626 16 23.2487 16 22.4V3.2C16 2.35131 15.6629 1.53737 15.0627 0.937258C14.4626 0.337142 13.6487 0 12.8 0L3.2 0Z" fill="#040606"/>
<path d="M8.00039 22.4002C8.42474 22.4002 8.8317 22.2316 9.13176 21.9316C9.43182 21.6315 9.60039 21.2245 9.60039 20.8002C9.60039 20.3758 9.43182 19.9689 9.13176 19.6688C8.8317 19.3688 8.42474 19.2002 8.00039 19.2002C7.57604 19.2002 7.16908 19.3688 6.86902 19.6688C6.56896 19.9689 6.40039 20.3758 6.40039 20.8002C6.40039 21.2245 6.56896 21.6315 6.86902 21.9316C7.16908 22.2316 7.57604 22.4002 8.00039 22.4002Z" fill="#040606"/>
</svg>
