<svg width="46" height="43" viewBox="0 0 46 43" fill="none" xmlns="http://www.w3.org/2000/svg">
<path fill-rule="evenodd" clip-rule="evenodd" d="M0.929199 19.1407C0.929199 29.6274 9.95134 38.1796 21.1216 38.1796C22.4926 38.1796 23.8637 38.0658 25.439 37.9351C27.1957 37.7893 29.2066 37.6224 31.7548 37.5688C35.6215 37.5688 39.8103 38.8923 44.4288 42.7612C44.8584 43.1684 45.5029 42.6594 45.0732 42.1503C40.4548 36.7543 36.2659 35.7361 32.0771 34.8198C26.9215 33.6999 24.2364 31.0528 22.4105 27.9984C22.0883 27.3875 21.8734 27.4893 21.8734 28.3038C21.766 29.5256 21.8734 30.6455 22.0883 31.7655H21.4438C14.1402 31.7655 8.12543 26.064 8.12543 19.1407C8.12543 12.2175 14.1402 6.51599 21.4438 6.51599C28.7475 6.51599 34.7622 12.2175 34.7622 19.1407C34.7622 19.548 34.7622 20.057 34.6548 20.5661C33.5807 20.3625 31.7548 20.3625 30.3586 20.4643C29.8215 20.4643 29.8215 20.6679 30.2511 20.7697C34.5474 21.5842 37.5548 24.1295 38.3066 28.8129C38.3066 29.0165 38.414 29.0165 38.5214 28.9147C40.2399 26.064 41.314 22.7042 41.314 19.1407C41.314 8.55224 32.2919 0 21.1216 0C9.95134 0 0.929199 8.65405 0.929199 19.1407ZM35.73 26.9802C36.4819 27.2856 36.8041 28.3037 36.8041 28.8128C36.9115 29.6273 36.6967 30.0345 36.3744 30.0345C36.0522 30.0345 35.6226 29.7291 35.193 29.0164C34.7633 28.3037 34.5485 27.591 34.7633 27.1838C35.0856 26.9802 35.4078 26.8783 35.73 26.9802ZM31.3249 30.1364C31.7546 30.1364 32.2916 30.34 32.8286 30.7473C33.6879 31.46 34.0101 32.2745 33.5805 32.8853C33.3657 33.1908 32.8286 33.3944 32.399 33.3944C31.862 33.3944 31.3249 33.1908 31.0027 32.8853C30.1435 32.1726 29.9286 31.1545 30.4657 30.5437C30.5731 30.34 30.8953 30.1364 31.3249 30.1364Z" fill="#F28A1A"/>
</svg>
