<svg width="25" height="25" viewBox="0 0 25 25" fill="none" xmlns="http://www.w3.org/2000/svg">
<path d="M21.875 7.8125H14.0625V6.25H21.875V7.8125ZM14.0625 9.375H20.3125V10.9375H14.0625V9.375ZM21.8262 17.2607C22.2819 17.3503 22.7051 17.509 23.0957 17.7368C23.4863 17.9647 23.82 18.2536 24.0967 18.6035C24.3734 18.9534 24.5931 19.3359 24.7559 19.751C24.9186 20.166 25 20.6136 25 21.0938C25 21.6309 24.8983 22.1354 24.6948 22.6074C24.4914 23.0794 24.2106 23.4945 23.8525 23.8525C23.4945 24.2106 23.0794 24.4914 22.6074 24.6948C22.1354 24.8983 21.6309 25 21.0938 25H17.9688C17.4316 25 16.9271 24.8983 16.4551 24.6948C15.9831 24.4914 15.568 24.2147 15.21 23.8647C14.8519 23.5148 14.5711 23.0998 14.3677 22.6196C14.1642 22.1395 14.0625 21.6309 14.0625 21.0938C14.0625 20.6299 14.1398 20.1864 14.2944 19.7632C14.4491 19.34 14.6647 18.9616 14.9414 18.6279C15.2181 18.2943 15.5477 18.0054 15.9302 17.7612C16.3127 17.5171 16.7318 17.3503 17.1875 17.2607V18.8843C16.9515 18.9657 16.7399 19.0796 16.5527 19.2261C16.3656 19.3726 16.1987 19.5435 16.0522 19.7388C15.9058 19.9341 15.8 20.1457 15.7349 20.3735C15.6698 20.6014 15.6331 20.8415 15.625 21.0938C15.625 21.4193 15.686 21.7244 15.8081 22.0093C15.9302 22.2941 16.097 22.5423 16.3086 22.7539C16.5202 22.9655 16.7684 23.1323 17.0532 23.2544C17.3381 23.3765 17.6432 23.4375 17.9688 23.4375H21.0938C21.4193 23.4375 21.7244 23.3765 22.0093 23.2544C22.2941 23.1323 22.5423 22.9655 22.7539 22.7539C22.9655 22.5423 23.1323 22.2941 23.2544 22.0093C23.3765 21.7244 23.4375 21.4193 23.4375 21.0938C23.4375 20.8415 23.4009 20.5973 23.3276 20.3613C23.2544 20.1253 23.1405 19.9097 22.9858 19.7144C22.8312 19.519 22.6603 19.3481 22.4731 19.2017C22.286 19.0552 22.0622 18.9412 21.8018 18.8599C21.8506 18.5669 21.875 18.2699 21.875 17.9688C21.875 17.8548 21.8709 17.7368 21.8628 17.6147C21.8547 17.4927 21.8424 17.3747 21.8262 17.2607ZM13.2812 15.625C12.9557 15.625 12.6506 15.686 12.3657 15.8081C12.0809 15.9302 11.8327 16.097 11.6211 16.3086C11.4095 16.5202 11.2427 16.7684 11.1206 17.0532C10.9985 17.3381 10.9375 17.6432 10.9375 17.9688C10.9375 18.2292 10.9741 18.4733 11.0474 18.7012C11.1206 18.929 11.2345 19.1447 11.3892 19.3481C11.5438 19.5516 11.7147 19.7225 11.9019 19.8608C12.089 19.9992 12.3128 20.1131 12.5732 20.2026C12.5244 20.4956 12.5 20.7926 12.5 21.0938C12.5 21.2077 12.5041 21.3257 12.5122 21.4478C12.5203 21.5698 12.5326 21.6878 12.5488 21.8018C12.0931 21.7204 11.6699 21.5617 11.2793 21.3257C10.8887 21.0897 10.555 20.8008 10.2783 20.459C10.0016 20.1172 9.7819 19.7347 9.61914 19.3115C9.45638 18.8883 9.375 18.4408 9.375 17.9688C9.375 17.4316 9.47672 16.9271 9.68018 16.4551C9.88363 15.9831 10.1603 15.5721 10.5103 15.2222C10.8602 14.8722 11.2752 14.5915 11.7554 14.3799C12.2355 14.1683 12.7441 14.0625 13.2812 14.0625H16.4062C16.9434 14.0625 17.4479 14.1642 17.9199 14.3677C18.3919 14.5711 18.8029 14.8519 19.1528 15.21C19.5028 15.568 19.7835 15.9831 19.9951 16.4551C20.2067 16.9271 20.3125 17.4316 20.3125 17.9688C20.3125 18.4082 20.2311 18.8354 20.0684 19.2505C19.9056 19.6655 19.6777 20.048 19.3848 20.3979C19.0918 20.7479 18.7622 21.0409 18.396 21.2769C18.0298 21.5129 17.627 21.6878 17.1875 21.8018V20.1782C17.5374 20.105 17.8141 20.0114 18.0176 19.8975C18.221 19.7835 18.3757 19.633 18.4814 19.4458C18.5872 19.2586 18.6605 19.047 18.7012 18.811C18.7419 18.575 18.7581 18.2943 18.75 17.9688C18.75 17.6432 18.689 17.3381 18.5669 17.0532C18.4448 16.7684 18.278 16.5202 18.0664 16.3086C17.8548 16.097 17.6066 15.9302 17.3218 15.8081C17.0369 15.686 16.7318 15.625 16.4062 15.625H13.2812ZM25 0V16.7358C24.5361 16.3208 24.0153 15.9912 23.4375 15.7471V1.5625H1.5625V17.1875H7.50732C7.49105 17.3177 7.47477 17.4438 7.4585 17.5659C7.44222 17.688 7.43001 17.8223 7.42188 17.9688C7.42188 18.099 7.43001 18.2292 7.44629 18.3594C7.46256 18.4896 7.47884 18.6198 7.49512 18.75H0V0H25ZM3.125 14.0625C3.125 13.6393 3.18197 13.2284 3.2959 12.8296C3.40983 12.4308 3.57259 12.0524 3.78418 11.6943C3.99577 11.3363 4.25212 11.0107 4.55322 10.7178C4.85433 10.4248 5.19206 10.1766 5.56641 9.97314C5.28971 9.68831 5.07406 9.35872 4.91943 8.98438C4.76481 8.61003 4.6875 8.2194 4.6875 7.8125C4.6875 7.38118 4.76888 6.97835 4.93164 6.604C5.0944 6.22965 5.3182 5.896 5.60303 5.60303C5.88786 5.31006 6.21745 5.08626 6.5918 4.93164C6.96615 4.77702 7.37305 4.69564 7.8125 4.6875C8.24381 4.6875 8.64665 4.76888 9.021 4.93164C9.39534 5.0944 9.729 5.3182 10.022 5.60303C10.3149 5.88786 10.5387 6.21745 10.6934 6.5918C10.848 6.96615 10.9294 7.37305 10.9375 7.8125C10.9375 8.2194 10.8602 8.61003 10.7056 8.98438C10.5509 9.35872 10.3353 9.68831 10.0586 9.97314C10.5713 10.258 11.0148 10.6242 11.3892 11.0718C11.7635 11.5194 12.0524 12.0239 12.2559 12.5854C11.735 12.6668 11.2305 12.8133 10.7422 13.0249C10.6283 12.7157 10.4736 12.4349 10.2783 12.1826C10.083 11.9303 9.85921 11.7106 9.60693 11.5234C9.35465 11.3363 9.07389 11.1938 8.76465 11.0962C8.4554 10.9985 8.13802 10.9456 7.8125 10.9375C7.38118 10.9375 6.97835 11.0189 6.604 11.1816C6.22965 11.3444 5.896 11.5682 5.60303 11.853C5.31006 12.1379 5.08626 12.4674 4.93164 12.8418C4.77702 13.2161 4.69564 13.623 4.6875 14.0625H3.125ZM7.8125 6.25C7.59277 6.25 7.38932 6.29069 7.20215 6.37207C7.01497 6.45345 6.85221 6.56331 6.71387 6.70166C6.57552 6.84001 6.46159 7.00684 6.37207 7.20215C6.28255 7.39746 6.24186 7.60091 6.25 7.8125C6.25 8.03223 6.29069 8.23568 6.37207 8.42285C6.45345 8.61003 6.56331 8.77279 6.70166 8.91113C6.84001 9.04948 7.00684 9.16341 7.20215 9.25293C7.39746 9.34245 7.60091 9.38314 7.8125 9.375C8.03223 9.375 8.23568 9.33431 8.42285 9.25293C8.61003 9.17155 8.77279 9.06169 8.91113 8.92334C9.04948 8.78499 9.16341 8.61816 9.25293 8.42285C9.34245 8.22754 9.38314 8.02409 9.375 7.8125C9.375 7.59277 9.33431 7.38932 9.25293 7.20215C9.17155 7.01497 9.06169 6.85221 8.92334 6.71387C8.78499 6.57552 8.61816 6.46159 8.42285 6.37207C8.22754 6.28255 8.02409 6.24186 7.8125 6.25Z" fill="#F4F4F4"/>
</svg>
