<svg width="32" height="30" viewBox="0 0 32 30" fill="none" xmlns="http://www.w3.org/2000/svg">
<path fill-rule="evenodd" clip-rule="evenodd" d="M15.1337 1.25479C15.6618 0.915069 16.3382 0.915069 16.8663 1.25479L30.259 9.87018C31.0066 10.3511 31.2248 11.3501 30.7463 12.1015C30.2679 12.853 29.2739 13.0723 28.5264 12.5914L27.2499 11.7702V24.6923C27.2499 27.0714 25.3311 29 22.9642 29H9.0358C6.6689 29 4.75015 27.0714 4.75015 24.6923V11.7702L3.47365 12.5914C2.72605 13.0723 1.73215 12.853 1.25369 12.1015C0.77523 11.3501 0.993405 10.3511 1.741 9.87018L15.1337 1.25479ZM10.3751 12.8462C10.3751 12.2514 10.8548 11.7692 11.4465 11.7692H14.6607C15.2525 11.7692 15.7321 12.2514 15.7321 12.8462V16.0769C15.7321 16.6717 15.2525 17.1538 14.6607 17.1538H11.4465C10.8548 17.1538 10.3751 16.6717 10.3751 16.0769V12.8462ZM11.4465 19.8462C11.4465 19.2514 11.9262 18.7692 12.5179 18.7692H14.6607C15.2525 18.7692 15.7321 19.2514 15.7321 19.8462V22C15.7321 22.5948 15.2525 23.0769 14.6607 23.0769H12.5179C11.9262 23.0769 11.4465 22.5948 11.4465 22V19.8462ZM17.3393 13.9231C17.3393 13.3283 17.819 12.8462 18.4107 12.8462H20.5535C21.1452 12.8462 21.6249 13.3283 21.6249 13.9231V16.0769C21.6249 16.6717 21.1452 17.1538 20.5535 17.1538H18.4107C17.819 17.1538 17.3393 16.6717 17.3393 16.0769V13.9231ZM17.3393 19.8462C17.3393 19.2514 17.819 18.7692 18.4107 18.7692H20.5535C21.1452 18.7692 21.6249 19.2514 21.6249 19.8462V22C21.6249 22.5948 21.1452 23.0769 20.5535 23.0769H18.4107C17.819 23.0769 17.3393 22.5948 17.3393 22V19.8462Z" stroke="#F4F4F4" stroke-width="2" stroke-linecap="round" stroke-linejoin="round"/>
</svg>
