<svg width="26" height="24" viewBox="0 0 26 24" fill="none" xmlns="http://www.w3.org/2000/svg">
<path d="M8.90258 7.64163L12.0207 1.58351C12.1115 1.40819 12.2511 1.26073 12.4239 1.15766C12.5967 1.05459 12.7958 1 12.9989 1C13.2021 1 13.4012 1.05459 13.574 1.15766C13.7467 1.26073 13.8863 1.40819 13.9771 1.58351L17.0953 7.64163L24.0661 8.61889C24.2672 8.64579 24.4563 8.72668 24.612 8.85234C24.7677 8.97799 24.8837 9.14334 24.9466 9.32952C25.0096 9.5157 25.017 9.7152 24.9681 9.90526C24.9191 10.0953 24.8158 10.2683 24.6698 10.4044L19.6265 15.117L20.8171 21.7749C20.9695 22.6294 20.0334 23.2802 19.2328 22.8772L12.9989 19.7324L6.7638 22.8772C5.96446 23.2813 5.02829 22.6294 5.18072 21.7738L6.37133 15.1158L1.32803 10.4032C1.18279 10.267 1.08006 10.0942 1.03153 9.90452C0.983003 9.7148 0.990615 9.51576 1.0535 9.33001C1.11639 9.14426 1.23203 8.97925 1.38728 8.85375C1.54253 8.72825 1.73116 8.64728 1.93174 8.62005L8.90258 7.64163Z" fill="#A94802" stroke="#A94802" stroke-linecap="round" stroke-linejoin="round"/>
</svg>
