<svg width="71" height="21" viewBox="0 0 71 21" fill="none" xmlns="http://www.w3.org/2000/svg">
<path fill-rule="evenodd" clip-rule="evenodd" d="M17.8906 20.7177H11.7719L7.18371 4.54204C6.96593 3.79796 6.50353 3.14015 5.82335 2.83012C4.12588 2.05099 2.25539 1.43092 0.214844 1.1182V0.495433H10.0715C11.4319 0.495433 12.4521 1.43092 12.6222 2.51739L15.0028 14.1854L21.1185 0.495433H27.0671L17.8906 20.7177ZM30.4668 20.7177H24.6882L29.4465 0.495433H35.2251L30.4668 20.7177ZM42.702 6.09762C42.872 5.00846 43.8923 4.3857 45.0826 4.3857C46.9531 4.22933 48.9906 4.54206 50.6911 5.3185L51.7114 0.964545C50.0109 0.341782 48.1404 0.0290527 46.4429 0.0290527C40.8344 0.0290527 36.7534 2.83014 36.7534 6.71769C36.7534 9.67514 39.6441 11.228 41.6847 12.1635C43.8923 13.0963 44.7425 13.7191 44.5724 14.6519C44.5724 16.051 42.872 16.6738 41.1745 16.6738C39.134 16.6738 37.0934 16.2074 35.2259 15.4283L34.2057 19.7849C36.2462 20.5614 38.4538 20.8741 40.4944 20.8741C46.783 21.0278 50.6911 18.2294 50.6911 14.0291C50.6911 8.73965 42.702 8.42962 42.702 6.09762ZM70.9147 20.7177L66.3265 0.495433H61.3982C60.3779 0.495433 59.3576 1.1182 59.0175 2.05099L50.5213 20.7177H56.4699L57.6572 17.7629H64.9661L65.6463 20.7177H70.9147ZM62.2487 5.94148L63.9462 13.5629H59.1879L62.2487 5.94148Z" fill="#172B85"/>
</svg>
