<svg width="28" height="25" viewBox="0 0 28 25" fill="none" xmlns="http://www.w3.org/2000/svg">
<path d="M27.0007 11.2231V21.0187C27.0007 21.8095 26.7321 22.5678 26.2541 23.127C25.776 23.6861 25.1277 24.0002 24.4516 24.0002H7.883C7.20696 24.0002 6.55861 23.6861 6.08057 23.127C5.60254 22.5678 5.33398 21.8095 5.33398 21.0187V18.7826M27.0007 11.2231V9.09281C27.0007 8.30207 26.7321 7.54372 26.2541 6.98458C25.776 6.42545 25.1277 6.11133 24.4516 6.11133H23.1771M27.0007 11.2231H23.1771" stroke="#F4F4F4" stroke-width="2" stroke-linecap="round" stroke-linejoin="round"/>
<path d="M23.75 6.21759V15.9074C23.75 16.6981 23.468 17.4565 22.9661 18.0156C22.4641 18.5748 21.7834 18.8889 21.0735 18.8889H3.67647C2.96663 18.8889 2.28586 18.5748 1.78392 18.0156C1.28198 17.4565 1 16.6981 1 15.9074V3.98148C1 3.19074 1.28198 2.43239 1.78392 1.87326C2.28586 1.31412 2.96663 1 3.67647 1H21.0735C21.7834 1 22.4641 1.31412 22.9661 1.87326C23.468 2.43239 23.75 3.19074 23.75 3.98148V6.21759ZM23.75 6.21759H5.68382" stroke="#F4F4F4" stroke-width="2" stroke-linecap="round" stroke-linejoin="round"/>
</svg>
