<svg width="41" height="41" viewBox="0 0 41 41" fill="none" xmlns="http://www.w3.org/2000/svg">
<path d="M20.5018 3.4165C29.9369 3.4165 37.5851 11.0647 37.5851 20.4998C37.5851 29.935 29.9369 37.5832 20.5018 37.5832C17.4828 37.588 14.5169 36.7891 11.9089 35.2684L3.42531 37.5832L5.73498 29.0962C4.21301 26.4873 3.41344 23.5202 3.41848 20.4998C3.41848 11.0647 11.0667 3.4165 20.5018 3.4165ZM14.6798 12.4707L14.3381 12.4843C14.117 12.4978 13.9008 12.5559 13.7026 12.6552C13.5173 12.7601 13.3482 12.8913 13.2004 13.0447C12.9954 13.2377 12.8792 13.4051 12.7545 13.5674C12.1226 14.389 11.7824 15.3976 11.7876 16.434C11.791 17.2711 12.0097 18.086 12.3514 18.8479C13.0501 20.3888 14.1998 22.0203 15.7168 23.5321C16.0824 23.896 16.4411 24.2616 16.8272 24.6015C18.7121 26.2611 20.9584 27.4579 23.3872 28.0968L24.3575 28.2454C24.6736 28.2625 24.9896 28.2386 25.3074 28.2232C25.8049 28.1975 26.2907 28.0628 26.7304 27.8286C26.9541 27.7134 27.1724 27.5879 27.3847 27.4528C27.3847 27.4528 27.4581 27.4049 27.5982 27.299C27.8289 27.1282 27.9706 27.0069 28.162 26.807C28.3038 26.6601 28.4268 26.4875 28.5207 26.2911C28.654 26.0126 28.7872 25.4813 28.8419 25.0389C28.8829 24.7006 28.8709 24.5161 28.8658 24.4017C28.859 24.2189 28.7069 24.0293 28.5412 23.949L27.547 23.5031C27.547 23.5031 26.0607 22.8556 25.1519 22.4422C25.0568 22.4007 24.9549 22.3769 24.8512 22.3722C24.7343 22.3602 24.6162 22.3733 24.5049 22.4107C24.3935 22.4482 24.2914 22.509 24.2055 22.5891C24.1969 22.5857 24.0825 22.6831 22.8474 24.1796C22.7765 24.2748 22.6788 24.3468 22.5669 24.3864C22.4549 24.4259 22.3337 24.4313 22.2187 24.4017C22.1074 24.3718 21.9984 24.3342 21.8924 24.2889C21.6806 24.2001 21.6071 24.1659 21.4619 24.1044C20.4814 23.6766 19.5737 23.0985 18.7713 22.391C18.556 22.203 18.3561 21.998 18.1511 21.7999C17.4791 21.1562 16.8933 20.4281 16.4086 19.6337L16.3079 19.4714C16.2355 19.3624 16.1769 19.2447 16.1336 19.1212C16.0687 18.8701 16.2378 18.6685 16.2378 18.6685C16.2378 18.6685 16.6529 18.2141 16.846 17.9681C17.0339 17.7289 17.1928 17.4966 17.2953 17.3309C17.4969 17.0063 17.5601 16.6732 17.4541 16.4152C16.9758 15.2467 16.4804 14.0833 15.9713 12.9285C15.8705 12.6996 15.5716 12.5356 15.2999 12.5031C15.2077 12.4929 15.1154 12.4826 15.0232 12.4758C14.7938 12.4644 14.5639 12.4667 14.3347 12.4826L14.6781 12.469L14.6798 12.4707Z" fill="#F4F4F4"/>
</svg>
